<?xml version="1.0" encoding="UTF-8" standalone="no"?>
<!-- Created with Inkscape (http://www.inkscape.org/) -->

<svg
   width="2032mm"
   height="1085mm"
   viewBox="0 0 2031.9999 1085"
   version="1.1"
   id="svg5"
   xml:space="preserve"
   inkscape:version="1.4 (e7c3feb100, 2024-10-09)"
   sodipodi:docname="EG_banner_revised.svg"
   inkscape:export-filename="banner_color_solitary_pineapple.png"
   inkscape:export-xdpi="96"
   inkscape:export-ydpi="96"
   xmlns:inkscape="http://www.inkscape.org/namespaces/inkscape"
   xmlns:sodipodi="http://sodipodi.sourceforge.net/DTD/sodipodi-0.dtd"
   xmlns:xlink="http://www.w3.org/1999/xlink"
   xmlns="http://www.w3.org/2000/svg"
   xmlns:svg="http://www.w3.org/2000/svg"><sodipodi:namedview
     id="namedview7"
     pagecolor="#ffffff"
     bordercolor="#000000"
     borderopacity="0.25"
     inkscape:showpageshadow="2"
     inkscape:pageopacity="0.0"
     inkscape:pagecheckerboard="0"
     inkscape:deskcolor="#d1d1d1"
     inkscape:document-units="px"
     showgrid="true"
     showguides="true"
     inkscape:zoom="0.2287265"
     inkscape:cx="3775.2512"
     inkscape:cy="2096.3902"
     inkscape:window-width="2560"
     inkscape:window-height="1368"
     inkscape:window-x="2560"
     inkscape:window-y="0"
     inkscape:window-maximized="1"
     inkscape:current-layer="layer1"
     inkscape:lockguides="false"><sodipodi:guide
       position="0,1143"
       orientation="0,7680"
       id="guide6489"
       inkscape:locked="false" /><sodipodi:guide
       position="2031.9999,1143"
       orientation="4320,0"
       id="guide6491"
       inkscape:locked="false" /><sodipodi:guide
       position="2031.9999,0"
       orientation="0,-7680"
       id="guide6493"
       inkscape:locked="false" /><sodipodi:guide
       position="0,0"
       orientation="-4320,0"
       id="guide6495"
       inkscape:locked="false" /><inkscape:grid
       type="xygrid"
       id="grid6499"
       spacingx="0.26458333"
       spacingy="0.26458333"
       originy="7.3436627e-18"
       empspacing="365"
       visible="false"
       originx="0"
       units="px" /><inkscape:grid
       type="xygrid"
       id="grid23670"
       visible="false"
       originx="0"
       originy="0"
       spacingy="1"
       spacingx="1"
       units="px" /></sodipodi:namedview><defs
     id="defs2"><linearGradient
       inkscape:collect="always"
       id="linearGradient10566"><stop
         style="stop-color:#7f4aa4;stop-opacity:0.58039218;"
         offset="0.21909587"
         id="stop10562" /><stop
         style="stop-color:#666666;stop-opacity:0;"
         offset="1"
         id="stop10564" /></linearGradient><linearGradient
       inkscape:collect="always"
       id="linearGradient10560"><stop
         style="stop-color:#7f4aa4;stop-opacity:0.58039218;"
         offset="0.21909587"
         id="stop10556" /><stop
         style="stop-color:#666666;stop-opacity:0;"
         offset="1"
         id="stop10558" /></linearGradient><linearGradient
       id="linearGradient7570"
       inkscape:swatch="solid"><stop
         style="stop-color:#000000;stop-opacity:1;"
         offset="0"
         id="stop7568" /></linearGradient><linearGradient
       inkscape:collect="always"
       id="linearGradient1424"><stop
         style="stop-color:#fede00;stop-opacity:0.58217651;"
         offset="0.21909587"
         id="stop1420" /><stop
         style="stop-color:#666666;stop-opacity:0;"
         offset="1"
         id="stop1422" /></linearGradient><linearGradient
       inkscape:collect="always"
       xlink:href="#linearGradient1424"
       id="linearGradient1426"
       x1="-44.596451"
       y1="537.1723"
       x2="2147.801"
       y2="537.1723"
       gradientUnits="userSpaceOnUse" /><linearGradient
       inkscape:collect="always"
       xlink:href="#linearGradient10566"
       id="linearGradient9825"
       gradientUnits="userSpaceOnUse"
       x1="-44.596451"
       y1="537.1723"
       x2="2147.801"
       y2="537.1723"
       gradientTransform="translate(-2.4799964,71.109965)" /><linearGradient
       inkscape:collect="always"
       xlink:href="#linearGradient10560"
       id="linearGradient9828"
       gradientUnits="userSpaceOnUse"
       x1="-44.596451"
       y1="537.1723"
       x2="2147.801"
       y2="537.1723"
       gradientTransform="translate(-7.7151862e-5)" /></defs><g
     inkscape:groupmode="layer"
     id="layer1"
     inkscape:label="Layer 1"><path
       id="rect2675"
       style="display:inline;stroke:#000000;stroke-width:1.08452"
       d="M -1.4768473,1.5096945 H 2031.3863 V 1083.257 H -1.4768473 Z" /><path
       style="display:none;fill:url(#linearGradient9828);fill-opacity:1;stroke:#000000;stroke-width:1"
       d="m -1.4143772,208.60509 -1.4798,703.17054 L 2033.8307,723.94506 c 0,0 0.2675,-159.22082 3.3703,-188.84573 C 2040.2845,505.65834 -1.4143772,208.60509 -1.4143772,208.60509 Z"
       id="path567"
       sodipodi:nodetypes="ccccc" /><path
       style="display:none;fill:url(#linearGradient9825);fill-opacity:1;stroke:#000000;stroke-width:1"
       d="m -3.8942964,279.71502 -1.4798,703.17061 L 2031.3508,795.05499 c 0,0 0.2675,-159.22082 3.3703,-188.84573 C 2037.8046,576.76827 -3.8942964,279.71502 -3.8942964,279.71502 Z"
       id="path567-1"
       sodipodi:nodetypes="ccccc" /><path
       style="display:none;fill:#7f4aa4;fill-opacity:1;stroke:#000000;stroke-width:1"
       d="m -4.5311517,235.36252 -1.4798,703.17061 L 2030.7139,750.70249 c 0,0 -2.1974,-196.10972 0.9054,-225.73463 C 1998.1195,517.00854 -4.5311517,235.36252 -4.5311517,235.36252 Z"
       id="path567-1-7"
       sodipodi:nodetypes="ccccc" /><path
       id="rect6916"
       style="display:none;fill:#ffff00;stroke:#000000"
       d="M 675.39874,483.0571 H 2030.976 V 776.33008 H 675.39874 Z" /><g
       aria-label="Welcome to"
       id="text3165"
       style="font-size:88.1944px;fill:#f4f2eb;stroke:#000000;stroke-width:0.1"
       inkscape:label="text3165"><path
         d="m 815.622,509.98354 c -2.02847,8.81944 -6.70277,25.2236 -14.1111,49.21248 -8.20208,-27.42846 -13.05277,-43.83262 -14.55208,-49.21248 h -7.05555 c -5.29166,19.13819 -10.14235,35.54234 -14.55207,49.21248 -7.49653,-23.90069 -12.43541,-40.30484 -14.99305,-49.21248 h -6.87916 c 7.32013,21.60763 13.40555,39.95206 18.43263,54.94511 h 6.61458 c 6.43819,-19.84374 11.37707,-34.92498 14.81665,-45.15553 6.79097,20.72568 11.72986,35.71873 14.72847,45.15553 h 6.61458 c 10.84791,-32.72012 17.02152,-50.97636 18.52082,-54.94511 z"
         style="font-family:'GFS Neohellenic';-inkscape-font-specification:'GFS Neohellenic';stroke:#f4f2eb"
         id="path875" /><path
         d="m 845.07898,530.26825 c -5.37985,0 -8.90763,1.5875 -12.17082,5.11528 -3.08681,3.35139 -4.67431,7.49652 -4.7625,12.43541 -0.0882,5.20347 1.4993,9.4368 4.6743,12.87638 3.175,3.35139 7.23194,5.11528 12.17083,5.11528 4.40972,0 8.90763,-1.14653 13.58194,-4.14514 l -2.55764,-4.6743 c -3.08681,2.73402 -6.52639,3.88055 -9.96597,3.88055 -3.35139,0 -5.82083,-0.97014 -8.46666,-3.43958 -2.73403,-2.55764 -4.05694,-5.64444 -3.96875,-9.4368 v -0.35278 h 26.7229 c 0.0882,-5.20347 -1.14652,-9.34861 -3.61597,-12.43541 -2.64583,-3.26319 -6.43819,-4.93889 -11.64166,-4.93889 z m -10.58332,12.7 c 1.76388,-4.8507 5.73263,-7.9375 10.05416,-7.9375 5.55624,0 8.73124,2.64583 9.3486,7.9375 z"
         style="font-family:'GFS Neohellenic';-inkscape-font-specification:'GFS Neohellenic';stroke:#f4f2eb"
         id="path877" /><path
         d="m 868.45045,512.10021 c 0.44097,5.02708 0.61736,12.69999 0.52917,22.93054 0,13.84652 -0.0882,23.90068 -0.35278,29.9861 h 5.73264 c 0,0.61736 -0.0882,-3.52778 -0.17639,-12.43541 -0.0882,-8.73125 -0.17639,-14.81666 -0.17639,-18.34444 0.0882,-9.78958 0.17639,-17.10971 0.44097,-22.13679 z"
         style="font-family:'GFS Neohellenic';-inkscape-font-specification:'GFS Neohellenic';stroke:#f4f2eb"
         id="path879" /><path
         d="m 908.84353,559.01963 c -2.73402,1.23472 -5.20347,1.85208 -7.40833,1.85208 -3.61597,-0.0882 -6.61458,-1.32292 -9.08402,-3.79236 -2.38125,-2.55764 -3.61597,-5.55625 -3.61597,-9.08402 0.0882,-6.17361 2.46944,-10.23055 7.23194,-12.08264 1.5875,-0.61736 3.43958,-0.97013 5.55625,-0.97013 2.02847,0 4.23333,0.35277 6.61458,0.97013 l 0.79375,-4.6743 c -3.43958,-0.97014 -6.79097,-1.23472 -10.05416,-0.88194 -4.67431,0.52916 -8.37847,2.38125 -11.28889,5.64444 -2.82222,3.26319 -4.23333,7.14375 -4.32152,11.72985 -0.0882,5.20347 1.4993,9.525 4.6743,12.96458 3.43958,3.61597 7.8493,5.29166 13.31735,5.02708 2.11667,-0.0882 3.96875,-0.35278 5.55625,-0.79375 0.88195,-0.26458 2.02847,-0.79375 3.52778,-1.41111 z"
         style="font-family:'GFS Neohellenic';-inkscape-font-specification:'GFS Neohellenic';stroke:#f4f2eb"
         id="path881" /><path
         d="m 950.03026,547.90713 c 0,-5.29166 -1.5875,-9.52499 -4.85069,-12.78818 -3.26319,-3.2632 -7.49653,-4.8507 -12.87638,-4.8507 -5.29167,0 -9.61319,1.6757 -12.96458,5.02708 -3.26319,3.2632 -4.93889,7.40833 -5.02708,12.43541 -0.0882,5.11528 1.4993,9.34861 4.7625,12.7 3.43958,3.52777 7.8493,5.29166 13.22916,5.29166 5.02708,0 9.17221,-1.67569 12.6118,-4.93889 3.43958,-3.26319 5.11527,-7.58471 5.11527,-12.87638 z m -5.37986,0 c -0.0882,7.8493 -5.20347,12.96458 -12.17082,12.96458 -3.61597,0 -6.61458,-1.23472 -9.17222,-3.79236 -2.46944,-2.55764 -3.70417,-5.64444 -3.70417,-9.17222 0,-3.70416 1.23473,-6.79097 3.61597,-9.26041 2.46945,-2.46944 5.55625,-3.70416 9.26042,-3.70416 7.32013,0 12.25902,5.55624 12.17082,12.96457 z"
         style="font-family:'GFS Neohellenic';-inkscape-font-specification:'GFS Neohellenic';stroke:#f4f2eb"
         id="path883" /><path
         d="m 1010.4434,563.42935 c -0.088,-1.41111 -0.088,-3.175 -0.088,-5.29167 -0.088,-2.46944 -0.088,-5.90902 -0.088,-10.40694 0,-6.87916 -0.9702,-11.72985 -2.9987,-14.55207 -1.7638,-2.55764 -4.6743,-3.79236 -8.8194,-3.79236 -5.02708,0 -9.26041,1.76389 -12.78818,5.29166 -1.6757,-3.52777 -4.93889,-5.29166 -9.70139,-5.29166 -4.32152,0 -8.02569,1.5875 -10.9361,4.6743 l 0.0882,-3.26319 h -5.37986 c 0.0882,2.11667 0.0882,3.52778 0.17639,4.23333 0,13.84652 -0.0882,23.90068 -0.35277,29.9861 h 5.73263 v -26.19374 c 0.79375,-0.88194 1.6757,-1.76389 2.46944,-2.64583 1.94028,-1.5875 4.40972,-2.38125 7.40833,-2.29306 2.91042,0.0882 4.8507,1.6757 5.90903,4.7625 0.61736,1.85208 0.88194,4.85069 0.97014,8.99583 0.0882,2.02847 0.0882,4.40972 0,7.05555 -0.0882,3.61597 -0.0882,7.05555 -0.0882,10.31875 h 5.99722 c 0,0.35277 -0.0882,-2.64584 -0.17639,-6.87917 v -10.40694 c 0,-3.61597 -0.26458,-6.61458 -0.79375,-8.99582 2.02847,-1.76389 2.99861,-2.64584 3.08681,-2.73403 2.20486,-1.49931 4.6743,-2.20486 7.58472,-2.11667 2.91043,0.0882 4.93883,1.6757 5.90903,4.7625 0.6173,1.85208 0.8819,4.85069 0.9701,8.99583 0.088,2.02847 0.088,4.40972 0,7.05555 -0.088,3.61597 -0.088,7.05555 -0.088,10.31875 h 5.9972 z"
         style="font-family:'GFS Neohellenic';-inkscape-font-specification:'GFS Neohellenic';stroke:#f4f2eb"
         id="path885" /><path
         d="m 1036.99,530.26825 c -5.3798,0 -8.9076,1.5875 -12.1708,5.11528 -3.0868,3.35139 -4.6743,7.49652 -4.7625,12.43541 -0.088,5.20347 1.4993,9.4368 4.6743,12.87638 3.175,3.35139 7.232,5.11528 12.1708,5.11528 4.4098,0 8.9077,-1.14653 13.582,-4.14514 l -2.5577,-4.6743 c -3.0868,2.73402 -6.5263,3.88055 -9.9659,3.88055 -3.3514,0 -5.8209,-0.97014 -8.4667,-3.43958 -2.734,-2.55764 -4.0569,-5.64444 -3.9687,-9.4368 v -0.35278 h 26.7229 c 0.088,-5.20347 -1.1466,-9.34861 -3.616,-12.43541 -2.6458,-3.26319 -6.4382,-4.93889 -11.6417,-4.93889 z m -10.5833,12.7 c 1.7639,-4.8507 5.7326,-7.9375 10.0542,-7.9375 5.5562,0 8.7312,2.64583 9.3486,7.9375 z"
         style="font-family:'GFS Neohellenic';-inkscape-font-specification:'GFS Neohellenic';stroke:#f4f2eb"
         id="path887" /><path
         d="m 1111.4261,530.70923 c -0.088,0.0882 -2.9986,0.0882 -8.643,0.0882 v -11.46527 l -5.2917,2.29305 v 9.17222 h -5.1152 v 1.85208 c 0,1.23472 0,1.85208 -0.088,1.94028 h 5.1152 c -0.088,8.20208 -0.1764,13.22916 -0.2645,15.08124 -0.1764,5.20347 -0.2646,8.02569 -0.2646,8.46666 0,5.02708 0.7055,7.58472 2.0284,7.67292 2.3813,0.0882 5.2917,-1.05834 8.7313,-3.35139 -0.7938,-2.11667 -1.2347,-3.35139 -1.4993,-3.70417 -0.3528,0.0882 -2.1167,1.5875 -2.8222,1.5875 -0.7056,0 -1.0584,-1.5875 -1.0584,-4.85069 0,2.02847 0.088,0.0882 0.1764,-5.99722 l 0.3528,-14.99305 h 8.643 z"
         style="font-family:'GFS Neohellenic';-inkscape-font-specification:'GFS Neohellenic';stroke:#f4f2eb"
         id="path889" /><path
         d="m 1151.6427,547.90713 c 0,-5.29166 -1.5875,-9.52499 -4.8506,-12.78818 -3.2632,-3.2632 -7.4966,-4.8507 -12.8764,-4.8507 -5.2917,0 -9.6132,1.6757 -12.9646,5.02708 -3.2632,3.2632 -4.9389,7.40833 -5.0271,12.43541 -0.088,5.11528 1.4993,9.34861 4.7625,12.7 3.4396,3.52777 7.8493,5.29166 13.2292,5.29166 5.0271,0 9.1722,-1.67569 12.6118,-4.93889 3.4396,-3.26319 5.1152,-7.58471 5.1152,-12.87638 z m -5.3798,0 c -0.088,7.8493 -5.2035,12.96458 -12.1708,12.96458 -3.616,0 -6.6146,-1.23472 -9.1723,-3.79236 -2.4694,-2.55764 -3.7041,-5.64444 -3.7041,-9.17222 0,-3.70416 1.2347,-6.79097 3.616,-9.26041 2.4694,-2.46944 5.5562,-3.70416 9.2604,-3.70416 7.3201,0 12.259,5.55624 12.1708,12.96457 z"
         style="font-family:'GFS Neohellenic';-inkscape-font-specification:'GFS Neohellenic';stroke:#f4f2eb"
         id="path891" /></g><g
       aria-label="May 4-8, Aachen Germany"
       id="text3165-4"
       style="font-size:52.9167px;fill:#ff0000;stroke:#000000;stroke-width:0.1"><path
         d="m 773.66841,681.90454 -11.58876,21.74876 -11.37709,-21.74876 h -5.18584 c 0.58209,1.05833 0.89959,3.28084 1.05834,6.61459 0.0529,1.32291 0.0529,4.65667 0.0529,10.00125 v 9.68376 c -0.0529,3.12208 -0.21166,5.34459 -0.58208,6.6675 h 4.28625 c -0.37042,-1.27 -0.52917,-3.4925 -0.58208,-6.72042 v -9.525 -12.75293 c 0.58208,2.16959 2.80458,6.87917 6.6675,14.12876 1.64042,3.01625 3.54542,6.40292 5.71501,10.16001 7.46125,-13.12334 11.64167,-21.32543 12.43542,-24.55335 v 13.01751 9.525 c -0.0529,3.175 -0.21167,5.39751 -0.58208,6.72042 h 4.445 c -0.37042,-1.32291 -0.52917,-3.54542 -0.58209,-6.6675 v -9.68376 c 0,-5.34458 0.0529,-8.67834 0.10584,-10.00125 0.15875,-3.33375 0.47625,-5.55626 1.05833,-6.61459 z"
         style="font-family:'GFS Neohellenic';-inkscape-font-specification:'GFS Neohellenic';fill:#f4f2eb;stroke:#f4f2eb"
         id="path894" /><path
         d="m 797.63963,702.27747 c -2.59292,0.42333 -4.55084,0.74083 -5.97959,0.89958 -1.85208,0.26459 -3.38667,0.9525 -4.49792,2.01084 -1.21708,1.16416 -1.79916,2.64583 -1.79916,4.39208 0,3.17501 2.43416,5.82084 5.82083,5.82084 2.75167,-0.0529 4.97417,-0.89958 6.61459,-2.64583 0.42333,1.74625 1.53458,2.59291 3.38667,2.59291 0.89958,0 1.905,-0.635 3.06917,-1.85208 v -2.8575 c -1.42875,1.05833 -2.2225,1.5875 -2.48709,1.5875 -0.58208,0 -0.89958,-0.42334 -0.89958,-1.21709 v -10.90084 c 0,-2.27541 -0.74083,-3.91583 -2.16959,-5.02708 -1.21708,-0.9525 -2.8575,-1.42875 -4.86833,-1.37584 -3.12209,0.0529 -5.60917,1.16417 -7.46126,3.33376 v 3.175 c 1.48167,-1.95792 4.76251,-3.75709 7.35542,-3.91584 2.59292,-0.15875 3.86292,0.9525 3.91584,3.33375 z m 0.15875,7.83167 c -0.635,0.58208 -1.5875,1.11125 -2.91042,1.69333 -1.32292,0.52917 -2.32833,0.79376 -3.12208,0.79376 -1.95792,0 -3.33376,-1.48167 -3.33376,-3.43959 0,-1.64042 1.69334,-3.01625 4.02167,-3.38667 2.48709,-0.37042 4.28626,-0.58208 5.34459,-0.74083 z"
         style="font-family:'GFS Neohellenic';-inkscape-font-specification:'GFS Neohellenic';fill:#f4f2eb;stroke:#f4f2eb"
         id="path896" /><path
         d="m 826.05588,694.4458 c -0.0529,-0.0529 -1.32292,-0.0529 -3.81,0 -1.42875,4.97417 -3.38667,10.42459 -5.82084,16.40417 -3.38667,-7.99042 -5.715,-13.49375 -7.03792,-16.45709 h -3.86292 c 3.12209,6.72042 6.19126,13.49376 9.31334,20.2671 -0.635,1.905 -1.53458,3.70417 -2.64583,5.34458 -1.32292,2.06375 -2.64584,3.28084 -3.96876,3.65126 -0.58208,0.15875 -1.16416,0.26458 -1.74625,0.26458 -1.64042,0 -3.01625,-0.47625 -4.07458,-1.48167 l -1.05834,2.59292 c 1.21709,1.05833 2.96334,1.5875 5.18584,1.5875 1.16417,0 2.32833,-0.15875 3.4925,-0.52917 1.85209,-0.58208 3.81,-2.96333 5.97959,-7.24958 0.79375,-1.53459 2.01083,-4.33917 3.65125,-8.41376 z"
         style="font-family:'GFS Neohellenic';-inkscape-font-specification:'GFS Neohellenic';fill:#f4f2eb;stroke:#f4f2eb"
         id="path898" /><path
         d="m 872.30507,702.96539 c -1.42875,0.26458 -2.59292,0.42333 -3.38667,0.37041 v -5.66208 -10.47751 -5.60917 c -0.0529,-0.0529 -0.37042,-0.0529 -1.05833,-0.0529 -0.63501,-0.0529 -0.95251,-0.0529 -1.00542,0 -1.11125,2.06375 -3.86292,6.35001 -8.36084,12.96459 -1.905,2.75167 -4.07459,5.87376 -6.45584,9.31334 v 2.48709 c 5.66209,-0.0529 10.16001,-0.0529 13.49376,0 v 5.76792 c -0.0529,0.37041 -0.26458,1.32292 -0.68792,2.80458 h 4.60376 c -0.3175,-1.37583 -0.47625,-2.38125 -0.52917,-3.06917 v -5.45042 c 1.21708,0.0529 2.32833,0.15875 3.38667,0.42334 z m -6.82626,0.52916 c -1.74625,0.0529 -4.92125,0 -9.525,-0.0529 4.02167,-6.03251 7.19667,-10.63626 9.57792,-13.86418 -0.0529,2.43417 -0.0529,7.09084 -0.0529,13.91709 z"
         style="font-family:'GFS Neohellenic';-inkscape-font-specification:'GFS Neohellenic';fill:#f4f2eb;stroke:#f4f2eb"
         id="path900" /><path
         d="m 890.61424,702.33039 h -12.065 v 2.8575 h 12.065 z"
         style="font-family:'GFS Neohellenic';-inkscape-font-specification:'GFS Neohellenic';fill:#f4f2eb;stroke:#f4f2eb"
         id="path902" /><path
         d="m 917.7605,705.71705 c 0.0529,-2.54 -0.68792,-4.7625 -2.16959,-6.61458 -1.53458,-2.01084 -3.54542,-3.01625 -5.92667,-3.01625 1.85209,0 3.33375,-0.68792 4.55084,-2.11667 1.21708,-1.42875 1.79916,-3.06917 1.79916,-4.97417 0,-2.06375 -0.68791,-3.75709 -2.11666,-5.18584 -1.5875,-1.5875 -3.81001,-2.38125 -6.61459,-2.43417 -2.91042,-0.0529 -5.18584,0.79375 -6.87917,2.54 -1.53459,1.53459 -2.27542,3.33376 -2.2225,5.50334 0,1.79917 0.58208,3.33375 1.69333,4.60375 1.21709,1.37584 2.75167,2.06376 4.65667,2.06376 -2.38125,0.10583 -4.33917,1.11125 -5.82084,2.96333 -1.48166,1.85208 -2.2225,3.96875 -2.2225,6.40292 0,2.69875 0.84667,4.92125 2.59292,6.72042 1.95792,2.06375 4.70959,3.12209 8.20209,3.06917 3.38667,0 6.0325,-1.00542 7.9375,-3.01625 1.69334,-1.74625 2.54001,-3.91584 2.54001,-6.50876 z m -4.92126,-16.82751 c 0.0529,1.48167 -0.42333,2.75167 -1.37583,3.75709 -1.00542,1.11125 -2.38125,1.69333 -4.1275,1.69333 -1.905,0 -3.38667,-0.52916 -4.49792,-1.5875 -1.00542,-0.89958 -1.48167,-2.11666 -1.48167,-3.54542 0,-1.42875 0.47625,-2.59291 1.48167,-3.54541 1.11125,-1.11126 2.59292,-1.64042 4.445,-1.64042 1.74625,0 3.175,0.47625 4.18042,1.48167 0.89958,0.89958 1.37583,2.06375 1.37583,3.38666 z m 1.48167,16.82751 c -0.0529,1.85209 -0.68792,3.43959 -1.85208,4.65667 -1.27,1.37584 -2.96334,2.06375 -5.13292,2.06375 -2.38126,-0.0529 -4.28626,-0.79375 -5.60917,-2.2225 -1.21709,-1.32291 -1.79917,-2.91041 -1.74625,-4.86833 0.0529,-1.95792 0.68791,-3.65125 1.95791,-5.08001 1.42875,-1.53458 3.22792,-2.27541 5.50334,-2.27541 2.16958,0 3.91584,0.79375 5.23875,2.43416 1.16417,1.42876 1.69334,3.22792 1.64042,5.29167 z"
         style="font-family:'GFS Neohellenic';-inkscape-font-specification:'GFS Neohellenic';fill:#f4f2eb;stroke:#f4f2eb"
         id="path904" /><path
         d="m 927.60299,711.32622 h -3.4925 v 3.54542 h 1.48167 c 0,2.48709 -0.74084,3.86292 -2.16959,4.12751 v 1.85208 c 2.80459,-0.68792 4.18042,-2.75167 4.18042,-6.29709 z"
         style="font-family:'GFS Neohellenic';-inkscape-font-specification:'GFS Neohellenic';fill:#f4f2eb;stroke:#f4f2eb"
         id="path906" /><path
         d="m 983.64181,714.87164 c -0.74083,-1.27 -3.12209,-7.24958 -7.09084,-17.88584 -1.69333,-4.445 -3.65125,-9.63084 -5.82083,-15.61043 h -3.75709 c -7.03792,18.89126 -11.43001,30.05669 -13.17626,33.49627 h 4.23334 c 0.3175,-1.42875 1.5875,-5.02708 3.86292,-10.84792 h 13.28209 c 2.16958,6.08542 3.38667,9.68376 3.65125,10.84792 z M 963.0043,700.7958 c 2.91042,-7.62 4.86833,-12.91167 5.82083,-15.92792 1.53459,5.02708 3.28084,10.37167 5.23876,15.92792 z"
         style="font-family:'GFS Neohellenic';-inkscape-font-specification:'GFS Neohellenic';fill:#f4f2eb;stroke:#f4f2eb"
         id="path908" /><path
         d="m 999.51686,702.27747 c -2.59292,0.42333 -4.55083,0.74083 -5.97959,0.89958 -1.85208,0.26459 -3.38666,0.9525 -4.49791,2.01084 -1.21709,1.16416 -1.79917,2.64583 -1.79917,4.39208 0,3.17501 2.43417,5.82084 5.82083,5.82084 2.75167,-0.0529 4.97417,-0.89958 6.61459,-2.64583 0.42329,1.74625 1.53459,2.59291 3.38669,2.59291 0.8996,0 1.905,-0.635 3.0691,-1.85208 v -2.8575 c -1.4287,1.05833 -2.2225,1.5875 -2.487,1.5875 -0.5821,0 -0.8996,-0.42334 -0.8996,-1.21709 v -10.90084 c 0,-2.27541 -0.7409,-3.91583 -2.1696,-5.02708 -1.21709,-0.9525 -2.85751,-1.42875 -4.86834,-1.37584 -3.12209,0.0529 -5.60917,1.16417 -7.46125,3.33376 v 3.175 c 1.48166,-1.95792 4.7625,-3.75709 7.35542,-3.91584 2.59291,-0.15875 3.86292,0.9525 3.91583,3.33375 z m 0.15875,7.83167 c -0.635,0.58208 -1.5875,1.11125 -2.91042,1.69333 -1.32291,0.52917 -2.32833,0.79376 -3.12208,0.79376 -1.95792,0 -3.33375,-1.48167 -3.33375,-3.43959 0,-1.64042 1.69333,-3.01625 4.02167,-3.38667 2.48708,-0.37042 4.28625,-0.58208 5.34458,-0.74083 z"
         style="font-family:'GFS Neohellenic';-inkscape-font-specification:'GFS Neohellenic';fill:#f4f2eb;stroke:#f4f2eb"
         id="path910" /><path
         d="m 1025.0227,711.27331 c -1.6405,0.74083 -3.1221,1.11125 -4.445,1.11125 -2.1696,-0.0529 -3.9688,-0.79375 -5.4505,-2.27542 -1.4287,-1.53458 -2.1695,-3.33375 -2.1695,-5.45042 0.053,-3.70417 1.4816,-6.13834 4.3391,-7.24959 0.9525,-0.37041 2.0638,-0.58208 3.3338,-0.58208 1.2171,0 2.54,0.21167 3.9687,0.58208 l 0.4763,-2.80458 c -2.0638,-0.58209 -4.0746,-0.74084 -6.0325,-0.52917 -2.8046,0.3175 -5.0271,1.42875 -6.7734,3.38667 -1.6933,1.95792 -2.54,4.28625 -2.5929,7.03792 -0.053,3.12209 0.8996,5.715 2.8046,7.77875 2.0638,2.16959 4.7096,3.17501 7.9904,3.01626 1.27,-0.0529 2.3813,-0.21167 3.3338,-0.47625 0.5291,-0.15875 1.2171,-0.47625 2.1166,-0.84667 z"
         style="font-family:'GFS Neohellenic';-inkscape-font-specification:'GFS Neohellenic';fill:#f4f2eb;stroke:#f4f2eb"
         id="path912" /><path
         d="m 1048.6764,714.87164 c 0,0.21167 -0.053,-1.5875 -0.1058,-4.1275 v -6.24417 c 0,-4.1275 -0.5821,-7.03792 -1.7992,-8.73126 -1.1112,-1.53458 -2.8575,-2.27541 -5.2917,-2.27541 -2.5929,0 -4.9741,0.9525 -7.1437,2.91042 v -2.06376 c 0,-5.13292 0.1058,-8.83708 0.2646,-11.21834 h -3.5984 c 0.2117,1.74626 0.3175,5.50334 0.3175,11.27126 v 2.48709 c 0,8.30792 -0.053,14.34042 -0.2116,17.99167 h 3.4396 c 0,0.0529 -0.053,-1.00541 -0.1059,-3.22792 -0.053,-2.38125 -0.053,-4.49791 -0.1058,-6.35 0,-2.64583 0,-4.65667 0.053,-6.0325 0.5821,-0.52917 1.2171,-1.05834 1.7992,-1.64042 1.4287,-1.00542 3.0162,-1.48167 4.8154,-1.42875 1.7462,0.0529 2.9104,1.00542 3.5454,2.8575 0.3704,1.11125 0.5292,2.91042 0.5821,5.3975 v 4.23334 c -0.053,2.16958 -0.053,4.23334 -0.053,6.19125 z"
         style="font-family:'GFS Neohellenic';-inkscape-font-specification:'GFS Neohellenic';fill:#f4f2eb;stroke:#f4f2eb"
         id="path914" /><path
         d="m 1064.6044,694.02246 c -3.2279,0 -5.3446,0.9525 -7.3025,3.06917 -1.8521,2.01084 -2.8046,4.49792 -2.8575,7.46126 -0.053,3.12208 0.8996,5.66208 2.8046,7.72583 1.905,2.01084 4.3392,3.06917 7.3025,3.06917 2.6458,0 5.3446,-0.68791 8.1492,-2.48708 l -1.5346,-2.80459 c -1.8521,1.64042 -3.9159,2.32834 -5.9796,2.32834 -2.0108,0 -3.4925,-0.58209 -5.08,-2.06375 -1.6404,-1.53459 -2.4342,-3.38667 -2.3813,-5.66209 v -0.21167 h 16.0338 c 0.053,-3.12208 -0.6879,-5.60917 -2.1696,-7.46125 -1.5875,-1.95792 -3.8629,-2.96334 -6.985,-2.96334 z m -6.35,7.62001 c 1.0583,-2.91042 3.4396,-4.7625 6.0325,-4.7625 3.3338,0 5.2388,1.5875 5.6092,4.7625 z"
         style="font-family:'GFS Neohellenic';-inkscape-font-specification:'GFS Neohellenic';fill:#f4f2eb;stroke:#f4f2eb"
         id="path916" /><path
         d="m 1096.6719,714.87164 c 0,0.37042 0,-0.68791 -0.053,-3.06917 -0.053,-2.43416 -0.053,-4.70958 -0.053,-6.82625 0,-4.1275 -0.5821,-7.03792 -1.7992,-8.73125 -1.1113,-1.53459 -2.8575,-2.27542 -5.2917,-2.27542 -2.5929,0 -4.9741,0.9525 -7.0908,2.80458 l 0.053,-2.48708 -3.2279,0.0529 c 0.053,1.21709 0.053,2.06376 0.053,2.48709 0,8.36084 -0.053,14.39334 -0.1587,18.04459 h 3.4395 v -15.24001 l 1.7463,-1.5875 c 1.3229,-0.9525 2.9104,-1.42875 4.7096,-1.37583 1.7462,0.0529 2.9104,1.00542 3.5454,2.8575 0.3704,1.11125 0.5292,2.91042 0.5821,5.3975 0.053,1.21709 0.053,2.54001 0,3.96876 -0.053,1.95791 -0.053,3.96875 -0.053,5.97958 z"
         style="font-family:'GFS Neohellenic';-inkscape-font-specification:'GFS Neohellenic';fill:#f4f2eb;stroke:#f4f2eb"
         id="path918" /><path
         d="m 1147.7365,714.02498 c -0.2645,-1.95792 -0.4233,-4.39209 -0.4762,-7.19668 0.053,4.39209 0.053,1.95792 0.053,-7.19667 -2.8046,0.0529 -6.0854,0 -9.9483,-0.0529 0.1587,1.21708 0.1587,2.8575 0,4.92125 h 2.5929 c 0.053,-0.79375 0.3704,-1.32292 0.9525,-1.48167 0.2646,-0.10583 0.9525,-0.15875 2.1167,-0.15875 h 0.7937 l 0.053,6.40292 c 0.053,1.32292 -0.5291,2.16959 -1.6404,2.59292 -0.6879,0.26458 -1.7992,0.42333 -3.3337,0.42333 -3.4396,0 -6.2442,-1.42875 -8.5196,-4.23333 -2.0638,-2.64584 -3.1221,-5.715 -3.1221,-9.26042 0,-3.75709 0.9525,-7.03792 2.9104,-9.84251 2.1696,-3.06917 5.08,-4.60375 8.7313,-4.60375 1.4287,0 2.487,0.15875 3.175,0.47625 0.8995,0.47625 1.5345,1.32292 1.7991,2.59292 h 2.4871 c -0.2646,-1.74625 -0.4233,-3.43959 -0.4762,-4.97417 -0.2117,0.0529 -0.5821,0 -1.1113,-0.15875 -0.7937,-0.26459 -1.3229,-0.42334 -1.6933,-0.47625 -1.4288,-0.3175 -2.9104,-0.47625 -4.4979,-0.47625 -4.7096,0 -8.4138,1.74625 -11.1655,5.23875 -2.5929,3.22792 -3.8629,7.19667 -3.8629,12.01209 0,4.60375 1.3229,8.46667 3.9159,11.64167 2.7516,3.43959 6.4029,5.13292 10.9008,5.13292 1.8521,0 3.2808,-0.15875 4.3921,-0.47625 2.1696,-0.635 3.8629,-0.89958 4.9741,-0.84666 z"
         style="font-family:'GFS Neohellenic';-inkscape-font-specification:'GFS Neohellenic';fill:#f4f2eb;stroke:#f4f2eb"
         id="path920" /><path
         d="m 1163.0295,694.02246 c -3.2279,0 -5.3446,0.9525 -7.3025,3.06917 -1.8521,2.01084 -2.8046,4.49792 -2.8575,7.46126 -0.053,3.12208 0.8996,5.66208 2.8046,7.72583 1.905,2.01084 4.3391,3.06917 7.3025,3.06917 2.6458,0 5.3446,-0.68791 8.1491,-2.48708 l -1.5345,-2.80459 c -1.8521,1.64042 -3.9159,2.32834 -5.9796,2.32834 -2.0109,0 -3.4925,-0.58209 -5.08,-2.06375 -1.6405,-1.53459 -2.4342,-3.38667 -2.3813,-5.66209 v -0.21167 h 16.0338 c 0.053,-3.12208 -0.6879,-5.60917 -2.1696,-7.46125 -1.5875,-1.95792 -3.8629,-2.96334 -6.985,-2.96334 z m -6.35,7.62001 c 1.0583,-2.91042 3.4396,-4.7625 6.0325,-4.7625 3.3337,0 5.2387,1.5875 5.6092,4.7625 z"
         style="font-family:'GFS Neohellenic';-inkscape-font-specification:'GFS Neohellenic';fill:#f4f2eb;stroke:#f4f2eb"
         id="path922" /><path
         d="m 1186.842,694.28705 c -0.5821,-0.26459 -1.2171,-0.37042 -1.905,-0.37042 -2.8046,0.0529 -4.5509,1.37583 -5.3446,4.07459 l 0.053,-3.65126 h -3.3338 c 0.053,1.27 0.1059,2.11667 0.1588,2.59292 0.1058,8.57251 0.1058,14.55209 0,17.99168 l 3.3867,-0.0529 c 0,0.15875 -0.053,-1.21708 -0.1059,-4.07458 -0.053,-2.8575 -0.053,-5.13292 -0.053,-6.87917 -0.053,-1.48167 0.2646,-2.91042 0.9525,-4.28626 1.0054,-1.85208 2.54,-2.80458 4.6038,-2.80458 0.4233,0 0.9525,0.21167 1.5875,0.68792 z"
         style="font-family:'GFS Neohellenic';-inkscape-font-specification:'GFS Neohellenic';fill:#f4f2eb;stroke:#f4f2eb"
         id="path924" /><path
         d="m 1222.2432,713.91914 c -0.053,-0.84666 -0.053,-1.905 -0.053,-3.175 -0.053,-1.48167 -0.053,-3.54542 -0.053,-6.24417 0,-4.1275 -0.5821,-7.03792 -1.7992,-8.73126 -1.0583,-1.53458 -2.8045,-2.27541 -5.2916,-2.27541 -3.0163,0 -5.5563,1.05833 -7.673,3.175 -1.0054,-2.11667 -2.9633,-3.175 -5.8208,-3.175 -2.5929,0 -4.8154,0.9525 -6.5617,2.80458 l 0.053,-1.95792 h -3.228 c 0.053,1.27 0.053,2.11667 0.1059,2.54001 0,8.30792 -0.053,14.34042 -0.2117,17.99167 h 3.4396 v -15.71626 c 0.4762,-0.52916 1.0054,-1.05833 1.4817,-1.5875 1.1641,-0.9525 2.6458,-1.42875 4.445,-1.37583 1.7462,0.0529 2.9104,1.00542 3.5454,2.8575 0.3704,1.11125 0.5291,2.91042 0.5821,5.3975 0.053,1.21709 0.053,2.64584 0,4.23334 -0.053,2.16958 -0.053,4.23334 -0.053,6.19125 h 3.5984 c 0,0.21167 -0.053,-1.5875 -0.1059,-4.1275 v -6.24417 c 0,-2.16958 -0.1587,-3.96875 -0.4762,-5.3975 1.2171,-1.05834 1.7992,-1.5875 1.8521,-1.64042 1.3229,-0.89958 2.8046,-1.32292 4.5508,-1.27 1.7463,0.0529 2.9634,1.00542 3.5454,2.8575 0.3705,1.11125 0.5292,2.91042 0.5821,5.3975 0.053,1.21709 0.053,2.64584 0,4.23334 -0.053,2.16958 -0.053,4.23334 -0.053,6.19125 h 3.5983 z"
         style="font-family:'GFS Neohellenic';-inkscape-font-specification:'GFS Neohellenic';fill:#f4f2eb;stroke:#f4f2eb"
         id="path926" /><path
         d="m 1240.3408,702.27747 c -2.5929,0.42333 -4.5508,0.74083 -5.9796,0.89958 -1.8521,0.26459 -3.3867,0.9525 -4.4979,2.01084 -1.2171,1.16416 -1.7992,2.64583 -1.7992,4.39208 0,3.17501 2.4342,5.82084 5.8209,5.82084 2.7516,-0.0529 4.9741,-0.89958 6.6145,-2.64583 0.4234,1.74625 1.5346,2.59291 3.3867,2.59291 0.8996,0 1.905,-0.635 3.0692,-1.85208 v -2.8575 c -1.4288,1.05833 -2.2225,1.5875 -2.4871,1.5875 -0.5821,0 -0.8996,-0.42334 -0.8996,-1.21709 v -10.90084 c 0,-2.27541 -0.7408,-3.91583 -2.1696,-5.02708 -1.2171,-0.9525 -2.8575,-1.42875 -4.8683,-1.37584 -3.1221,0.0529 -5.6092,1.16417 -7.4613,3.33376 v 3.175 c 1.4817,-1.95792 4.7625,-3.75709 7.3555,-3.91584 2.5929,-0.15875 3.8629,0.9525 3.9158,3.33375 z m 0.1587,7.83167 c -0.635,0.58208 -1.5875,1.11125 -2.9104,1.69333 -1.3229,0.52917 -2.3283,0.79376 -3.1221,0.79376 -1.9579,0 -3.3337,-1.48167 -3.3337,-3.43959 0,-1.64042 1.6933,-3.01625 4.0217,-3.38667 2.487,-0.37042 4.2862,-0.58208 5.3445,-0.74083 z"
         style="font-family:'GFS Neohellenic';-inkscape-font-specification:'GFS Neohellenic';fill:#f4f2eb;stroke:#f4f2eb"
         id="path928" /><path
         d="m 1269.7095,714.87164 c 0,0.37042 0,-0.68791 -0.053,-3.06917 -0.053,-2.43416 -0.053,-4.70958 -0.053,-6.82625 0,-4.1275 -0.5821,-7.03792 -1.7992,-8.73125 -1.1112,-1.53459 -2.8575,-2.27542 -5.2916,-2.27542 -2.593,0 -4.9742,0.9525 -7.0909,2.80458 l 0.053,-2.48708 -3.2279,0.0529 c 0.053,1.21709 0.053,2.06376 0.053,2.48709 0,8.36084 -0.053,14.39334 -0.1587,18.04459 h 3.4396 v -15.24001 l 1.7462,-1.5875 c 1.3229,-0.9525 2.9104,-1.42875 4.7096,-1.37583 1.7463,0.0529 2.9104,1.00542 3.5454,2.8575 0.3704,1.11125 0.5292,2.91042 0.5821,5.3975 0.053,1.21709 0.053,2.54001 0,3.96876 -0.053,1.95791 -0.053,3.96875 -0.053,5.97958 z"
         style="font-family:'GFS Neohellenic';-inkscape-font-specification:'GFS Neohellenic';fill:#f4f2eb;stroke:#f4f2eb"
         id="path930" /><path
         d="m 1294.3687,694.4458 c -0.053,-0.0529 -1.3229,-0.0529 -3.81,0 -1.4288,4.97417 -3.3867,10.42459 -5.8208,16.40417 -3.3867,-7.99042 -5.715,-13.49375 -7.038,-16.45709 h -3.8629 c 3.1221,6.72042 6.1913,13.49376 9.3134,20.2671 -0.635,1.905 -1.5346,3.70417 -2.6459,5.34458 -1.3229,2.06375 -2.6458,3.28084 -3.9687,3.65126 -0.5821,0.15875 -1.1642,0.26458 -1.7463,0.26458 -1.6404,0 -3.0162,-0.47625 -4.0746,-1.48167 l -1.0583,2.59292 c 1.2171,1.05833 2.9633,1.5875 5.1858,1.5875 1.1642,0 2.3284,-0.15875 3.4925,-0.52917 1.8521,-0.58208 3.81,-2.96333 5.9796,-7.24958 0.7938,-1.53459 2.0109,-4.33917 3.6513,-8.41376 z"
         style="font-family:'GFS Neohellenic';-inkscape-font-specification:'GFS Neohellenic';fill:#f4f2eb;stroke:#f4f2eb"
         id="path932" /></g><g
       aria-label="Eurographics 2026"
       id="text4047"
       style="font-size:88.1944px;font-family:Delphine;-inkscape-font-specification:Delphine;fill:#fbdd00;stroke:#000000;stroke-width:0.1"><path
         d="m 810.91671,653.30511 h -8.20208 v 7.8493 h -1.41111 v -7.8493 h -56.53261 v 7.8493 h -1.41111 v -7.8493 h -6.79097 v -1.32291 h 6.79097 v -58.47289 h -7.67291 v -1.41111 h 7.67291 v -8.02569 h 1.41111 v 8.02569 h 56.53261 v -8.02569 h 1.41111 v 8.02569 h 7.32013 v 1.41111 h -7.32013 v 58.47289 h 8.20208 z m -53.79858,-38.09998 h 38.36456 v 12.7 h -38.36456 v 12.5236 h 44.18539 v -35.54234 h -44.18539 z"
         style="font-family:'Product Design';-inkscape-font-specification:'Product Design'"
         id="path935" /><path
         d="m 882.0014,593.50931 h -7.14375 v 58.47289 h 8.02569 v 1.32291 h -8.02569 v 7.8493 h -1.41111 v -7.8493 h -63.32358 v 7.8493 h -1.41111 v -7.8493 h -6.79097 v -1.32291 h 6.79097 v -58.47289 h -7.67291 v -1.41111 h 7.67291 v -8.02569 h 1.41111 v 8.02569 h 63.32358 v -8.02569 h 1.41111 v 8.02569 h 7.14375 z m -48.68331,46.91942 h 17.46249 q 10.75972,0 10.75972,-8.11388 v -38.80554 h -38.98193 v 38.80554 q 0,8.11388 10.75972,8.11388 z m -23.19513,-5.20347 v 16.75694 h 14.02291 q -12.25902,-3.43958 -14.02291,-16.75694 z m 49.74164,16.75694 h 13.58194 v -13.84652 q -2.73403,10.75971 -13.58194,13.84652 z"
         style="font-family:'Product Design';-inkscape-font-specification:'Product Design'"
         id="path937" /><path
         d="m 954.76176,653.30511 h -8.29027 v 7.8493 h -1.5875 v -7.8493 h -57.76733 v 7.8493 h -1.41111 v -7.8493 h -6.79097 v -1.32291 h 6.79097 v -58.47289 h -7.67292 v -1.41111 h 7.67292 v -8.02569 h 1.41111 v 8.02569 h 57.76733 v -8.02569 h 1.5875 v 8.02569 h 7.40832 v 1.41111 h -7.40832 v 58.47289 h 8.29027 z m -55.65067,-25.39998 v 24.07707 h 30.95624 l -15.61041,-24.07707 z m 27.51666,-12.7 q 2.20486,0 3.70416,-1.4993 1.49931,-1.49931 1.49931,-3.70417 0,-2.11666 -1.49931,-3.61597 -1.4993,-1.4993 -3.70416,-1.4993 h -27.51666 v 10.31874 z m 17.90346,-5.20347 q 0,3.35139 -1.14653,6.35 -1.14653,2.99861 -3.175,5.37986 -2.02847,2.29305 -4.76249,3.88055 -2.73403,1.5875 -5.90903,2.11667 l 15.34583,23.72429 v -57.94372 h -11.46528 l 0.61737,0.26459 q 3.17499,1.41111 5.46805,3.88055 2.38125,2.38125 3.70416,5.55625 1.32292,3.17499 1.32292,6.79096 z"
         style="font-family:'Product Design';-inkscape-font-specification:'Product Design'"
         id="path939" /><path
         d="m 1022.4067,593.50931 h -6.2618 v 58.47289 h 7.1438 v 1.32291 h -7.1438 v 7.8493 h -1.4111 v -7.8493 h -62.97077 v 7.8493 h -1.41111 v -7.8493 h -6.79096 v -1.32291 h 6.79096 v -58.47289 h -7.67291 v -1.41111 h 7.67291 v -8.02569 h 1.41111 v 8.02569 h 62.97077 v -8.02569 h 1.4111 v 8.02569 h 6.2618 z m -19.9319,19.49096 q 0,-8.11388 -10.7597,-8.11388 h -17.55069 q -10.75972,0 -10.75972,8.11388 v 19.40277 q 0,8.11389 10.75972,8.11389 h 17.55069 q 10.7597,0 10.7597,-8.11389 z m -1.6757,38.98193 h 13.9347 v -15.96319 q -2.0284,12.6118 -13.9347,15.96319 z m 13.9347,-42.5097 v -15.96319 h -13.0527 q 11.1125,3.61597 13.0527,15.96319 z m -62.97077,29.36873 v 13.14097 h 13.22916 q -10.40693,-2.99861 -13.22916,-13.14097 z m 12.43541,-45.33192 h -12.43541 v 13.05277 q 2.73403,-9.87777 12.43541,-13.05277 z"
         style="font-family:'Product Design';-inkscape-font-specification:'Product Design'"
         id="path941" /><path
         d="m 1095.0789,653.30511 h -8.2021 v 7.8493 h -1.4111 v -7.8493 h -60.3249 v 7.8493 h -1.4112 v -7.8493 h -6.7909 v -1.32291 h 6.7909 v -58.47289 h -7.6729 v -1.41111 h 7.6729 v -8.02569 h 1.4112 v 8.02569 h 60.3249 v -8.02569 h 1.4111 v 8.02569 h 7.3202 v 1.41111 h -7.3202 v 58.47289 h 8.2021 z m -53.534,-47.53678 q -1.3229,0.61736 -2.3812,1.76389 -0.9702,1.05833 -1.5875,2.46944 -0.5292,1.41111 -0.5292,2.99861 v 19.49097 q 0,3.17499 2.1167,5.46805 2.2048,2.29305 5.2916,2.55764 h 29.016 v -8.02569 h -11.9945 v -12.78819 h 23.9889 v -14.72847 h -41.0104 q -1.5875,0.0882 -2.9104,0.79375 z m -5.2916,45.59651 q -3.5278,-1.76389 -6.2619,-4.49792 -2.6458,-2.82222 -4.2333,-6.43819 -0.3528,-0.88194 -0.6173,-1.76389 v 13.31736 h 12.6118 q -0.7056,-0.26459 -1.4993,-0.61736 z m -10.4952,-46.30206 q 1.5875,-3.70417 4.2333,-6.43819 2.7341,-2.82222 6.2619,-4.49792 0.6173,-0.35277 1.3229,-0.61736 h -12.4354 v 13.31736 q 0.2645,-0.88195 0.6173,-1.76389 z"
         style="font-family:'Product Design';-inkscape-font-specification:'Product Design'"
         id="path943" /><path
         d="m 1167.4865,653.30511 h -8.2903 v 7.8493 h -1.5875 v -7.8493 h -57.7673 v 7.8493 h -1.4111 v -7.8493 h -6.791 v -1.32291 h 6.791 v -58.47289 h -7.6729 v -1.41111 h 7.6729 v -8.02569 h 1.4111 v 8.02569 h 57.7673 v -8.02569 h 1.5875 v 8.02569 h 7.4084 v 1.41111 h -7.4084 v 58.47289 h 8.2903 z m -55.6506,-25.39998 v 24.07707 h 30.9562 l -15.6104,-24.07707 z m 27.5166,-12.7 q 2.2049,0 3.7042,-1.4993 1.4993,-1.49931 1.4993,-3.70417 0,-2.11666 -1.4993,-3.61597 -1.4993,-1.4993 -3.7042,-1.4993 h -27.5166 v 10.31874 z m 17.9035,-5.20347 q 0,3.35139 -1.1466,6.35 -1.1465,2.99861 -3.175,5.37986 -2.0284,2.29305 -4.7625,3.88055 -2.734,1.5875 -5.909,2.11667 l 15.3458,23.72429 v -57.94372 h -11.4652 l 0.6173,0.26459 q 3.175,1.41111 5.4681,3.88055 2.3812,2.38125 3.7042,5.55625 1.3229,3.17499 1.3229,6.79096 z"
         style="font-family:'Product Design';-inkscape-font-specification:'Product Design'"
         id="path945" /><path
         d="m 1237.8656,653.30511 h -8.2903 v 7.8493 h -1.4111 v -7.8493 h -63.8527 v 7.8493 h -1.4111 v -7.8493 h -7.3202 v -1.32291 h 7.3202 v -58.47289 h -8.2021 v -1.41111 h 8.2021 v -8.02569 h 1.4111 v 8.02569 h 63.8527 v -8.02569 h 1.4111 v 8.02569 h 7.4084 v 1.41111 h -7.4084 v 58.47289 h 8.2903 z m -22.1368,-20.28471 h -39.0701 v 18.9618 h 39.0701 z m -39.0701,-12.78819 h 39.0701 v -7.23194 q 0,-8.11388 -10.7597,-8.11388 h -17.5507 q -10.7597,0 -10.7597,8.11388 z m 51.5055,-9.4368 v -17.2861 h -13.8465 q 12.259,3.61597 13.8465,17.2861 z m -50.1826,-17.2861 h -13.6701 v 16.58055 q 1.7639,-13.05277 13.6701,-16.58055 z"
         style="font-family:'Product Design';-inkscape-font-specification:'Product Design'"
         id="path947" /><path
         d="m 1308.2448,653.30511 h -7.1437 v 7.8493 h -1.4112 v -7.8493 h -58.4728 v 7.8493 h -1.4111 v -7.8493 h -6.791 v -1.32291 h 6.791 v -58.47289 h -7.673 v -1.41111 h 7.673 v -8.02569 h 1.4111 v 8.02569 h 58.4728 v -8.02569 h 1.4112 v 8.02569 h 6.2618 v 1.41111 h -6.2618 v 58.47289 h 7.1437 z m -8.9958,-36.24789 q -1.4111,3.26319 -3.8806,5.64444 -2.4694,2.38125 -5.7326,3.79236 -3.175,1.41111 -6.8792,1.41111 h -29.5451 v 24.07707 h 46.4784 v -35.98332 q -0.2645,0.52917 -0.4409,1.05834 z m -16.4924,-1.85209 q 2.1167,0 3.616,-1.4993 1.5875,-1.49931 1.5875,-3.61597 0,-2.11667 -1.5875,-3.61597 -1.4993,-1.5875 -3.616,-1.5875 h -29.5451 v 10.31874 z m 6.9674,-21.60762 q 3.2632,1.41111 5.6444,3.88055 2.4695,2.38125 3.8806,5.64444 0.2646,0.61736 0.4409,1.14653 v -10.75972 h -10.1423 z"
         style="font-family:'Product Design';-inkscape-font-specification:'Product Design'"
         id="path949" /><path
         d="m 1374.1259,653.30511 h -6.7028 v 7.8493 h -1.4111 v -7.8493 h -58.5611 v 7.8493 h -1.4111 v -7.8493 h -6.7909 v -1.32291 h 6.7909 v -58.47289 h -7.6729 v -1.41111 h 7.6729 v -8.02569 h 1.4111 v 8.02569 h 58.5611 v -8.02569 h 1.4111 v 8.02569 h 5.8209 v 1.41111 h -5.8209 v 58.47289 h 6.7028 z m -20.2847,-26.37012 h -34.2194 v 25.04721 h 34.2194 z m 0,-12.69999 v -20.72569 h -34.2194 V 614.235 Z"
         style="font-family:'Product Design';-inkscape-font-specification:'Product Design'"
         id="path951" /><path
         d="m 1401.9954,653.30511 h -7.7611 v 7.8493 h -1.4111 v -7.8493 h -11.5535 v 7.8493 h -1.4111 v -7.8493 h -6.7909 v -1.32291 h 6.7909 v -58.47289 h -7.6729 v -1.41111 h 7.6729 v -8.02569 h 1.4111 v 8.02569 h 11.5535 v -8.02569 h 1.4111 v 8.02569 h 6.8792 v 1.41111 h -6.8792 v 58.47289 h 7.7611 z"
         style="font-family:'Product Design';-inkscape-font-specification:'Product Design'"
         id="path953" /><path
         d="m 1473.6975,653.30511 h -7.7611 v 7.8493 h -1.4111 v -7.8493 h -60.0604 v 7.8493 h -1.4111 v -7.8493 h -6.35 v -1.32291 h 6.35 v -58.47289 h -7.2319 v -1.41111 h 7.2319 v -8.02569 h 1.4111 v 8.02569 h 60.0604 v -8.02569 h 1.4111 v 8.02569 h 6.8792 v 1.41111 h -6.8792 v 58.47289 h 7.7611 z m -57.5909,-40.30484 v 19.31458 q 0,8.11388 10.7597,8.11388 h 37.659 v -35.54234 h -37.659 q -10.7597,0 -10.7597,8.11388 z m -11.6417,26.10555 v 12.87638 h 13.2292 q -10.3188,-2.91042 -13.2292,-12.87638 z m 12.8764,-45.59651 h -12.8764 v 12.87638 q 2.8222,-9.78957 12.8764,-12.87638 z"
         style="font-family:'Product Design';-inkscape-font-specification:'Product Design'"
         id="path955" /><path
         d="m 1540.7252,593.50931 h -6.8792 v 58.47289 h 7.7611 v 1.32291 h -7.7611 v 7.8493 h -1.4111 v -7.8493 h -59.6194 v 7.8493 h -1.4111 v -7.8493 h -6.791 v -1.32291 h 6.791 v -58.47289 h -7.6729 v -1.41111 h 7.6729 v -8.02569 h 1.4111 v 8.02569 h 59.6194 v -8.02569 h 1.4111 v 8.02569 h 6.8792 z m -54.3278,13.31736 q -1.8521,1.85208 -1.8521,4.40972 0,2.55763 1.8521,4.49791 1.9403,1.85208 4.4979,1.85208 h 24.4299 q 3.7041,0 6.8791,1.41111 3.2632,1.41111 5.6445,3.88056 2.4694,2.38125 3.8805,5.64444 0.441,0.97014 0.7056,1.94027 v -25.57637 h -41.5396 q -2.5576,0 -4.4979,1.94028 z m 28.9278,33.60206 q 2.0284,0 3.5278,-1.4993 1.4993,-1.49931 1.4993,-3.52778 0,-2.02847 -1.4993,-3.52778 -1.4994,-1.58749 -3.5278,-1.58749 h -24.4299 q -3.8805,0 -7.4083,-1.49931 -3.4396,-1.4993 -6.0854,-4.05694 -2.5577,-2.64583 -4.057,-6.08541 l -0.5291,-1.32292 v 23.10693 z m -41.9806,-36.51248 q 1.4993,-3.52777 4.057,-6.17361 2.6458,-2.73402 6.0854,-4.23333 h -10.6715 v 11.72986 z m 58.3847,38.45276 q -1.4111,3.175 -3.8805,5.64444 -2.3813,2.38125 -5.6445,3.79236 l -0.3527,0.17639 h 10.5833 v -11.55347 q -0.2646,0.97014 -0.7056,1.94028 z"
         style="font-family:'Product Design';-inkscape-font-specification:'Product Design'"
         id="path957" /><path
         d="m 1637.739,653.30511 h -7.8493 v 7.8493 h -1.4111 v -7.8493 H 1568.33 v 7.8493 h -1.4111 v -7.8493 h -6.7909 v -1.32291 h 6.7909 v -58.47289 h -7.6729 v -1.41111 h 7.6729 v -8.02569 h 1.4111 v 8.02569 h 60.1486 v -8.02569 h 1.4111 v 8.02569 h 6.9674 v 1.41111 h -6.9674 v 58.47289 h 7.8493 z m -68.1742,-24.78262 q 1.4111,-3.26319 3.7923,-5.64444 2.4695,-2.46945 5.6445,-3.88056 3.2631,-1.41111 6.9673,-1.41111 h 24.4299 q 2.5576,0 4.4097,-1.85208 1.9403,-1.94028 1.9403,-4.49791 0,-2.55764 -1.9403,-4.40972 -1.8521,-1.94028 -4.4097,-1.94028 H 1568.33 v 27.78123 q 0.3528,-2.11666 1.2348,-4.14513 z m 58.3846,-9.87777 q -1.4993,3.43958 -4.1451,6.08541 -2.5576,2.55764 -6.0854,4.05694 -3.4396,1.49931 -7.3201,1.49931 h -24.4299 q -2.0285,0 -3.5278,1.58749 -1.4993,1.49931 -1.4993,3.52778 v 5.02708 h 47.5368 V 617.2336 Z m -10.2305,-24.95902 q 3.5278,1.49931 6.0854,4.14514 2.6458,2.55764 4.1451,6.08541 0.2646,0.61736 0.5292,1.32292 v -11.72986 h -11.1125 z"
         style="font-family:'Product Design';-inkscape-font-specification:'Product Design'"
         id="path959" /><path
         d="m 1702.2972,653.30511 h -5.8208 v 7.8493 h -1.4111 v -7.8493 h -62.7062 v 7.8493 h -1.4111 v -7.8493 h -6.791 v -1.32291 h 6.791 v -58.47289 h -7.6729 v -1.41111 h 7.6729 v -8.02569 h 1.4111 v 8.02569 h 62.7062 v -8.02569 h 1.4111 v 8.02569 h 4.9389 v 1.41111 h -4.9389 v 58.47289 h 5.8208 z m -19.1381,-40.30484 q 0,-8.11388 -10.7598,-8.11388 h -17.5506 q -10.7598,0 -10.7598,8.11388 v 19.40277 q 0,8.11389 10.7598,8.11389 h 17.5506 q 10.7598,0 10.7598,-8.11389 z m -1.6757,38.98193 h 13.5819 v -14.1993 q -2.5576,11.11249 -13.5819,14.1993 z m 13.5819,-44.36178 v -14.11111 h -13.3173 q 10.7597,3.26319 13.3173,14.11111 z m -62.7062,30.95623 v 13.40555 h 13.3173 q -10.5833,-2.99861 -13.3173,-13.40555 z m 13.0528,-45.06734 h -13.0528 v 13.40555 q 2.734,-10.31874 13.0528,-13.40555 z"
         style="font-family:'Product Design';-inkscape-font-specification:'Product Design'"
         id="path961" /><path
         d="m 1767.2083,653.30511 h -7.8493 v 7.8493 h -1.4112 v -7.8493 h -60.1485 v 7.8493 h -1.4111 v -7.8493 h -6.791 v -1.32291 h 6.791 v -58.47289 h -7.673 v -1.41111 h 7.673 v -8.02569 h 1.4111 v 8.02569 h 60.1485 v -8.02569 h 1.4112 v 8.02569 h 6.9673 v 1.41111 h -6.9673 v 58.47289 h 7.8493 z m -68.1743,-24.78262 q 1.4111,-3.26319 3.7923,-5.64444 2.4695,-2.46945 5.6445,-3.88056 3.2632,-1.41111 6.9673,-1.41111 h 24.4299 q 2.5576,0 4.4097,-1.85208 1.9403,-1.94028 1.9403,-4.49791 0,-2.55764 -1.9403,-4.40972 -1.8521,-1.94028 -4.4097,-1.94028 h -42.0687 v 27.78123 q 0.3527,-2.11666 1.2347,-4.14513 z m 58.3847,-9.87777 q -1.4993,3.43958 -4.1452,6.08541 -2.5576,2.55764 -6.0854,4.05694 -3.4396,1.49931 -7.3201,1.49931 h -24.4299 q -2.0284,0 -3.5277,1.58749 -1.4993,1.49931 -1.4993,3.52778 v 5.02708 h 47.5367 V 617.2336 Z m -10.2306,-24.95902 q 3.5278,1.49931 6.0854,4.14514 2.6459,2.55764 4.1452,6.08541 0.2646,0.61736 0.5291,1.32292 v -11.72986 h -11.1124 z"
         style="font-family:'Product Design';-inkscape-font-specification:'Product Design'"
         id="path963" /><path
         d="m 1833.7068,653.30511 h -11.0243 v 7.8493 h -1.4111 v -7.8493 h -57.5028 v 7.8493 h -1.4111 v -7.8493 h -6.791 v -1.32291 h 6.791 v -58.47289 h -7.6729 v -1.41111 h 7.6729 v -8.02569 h 1.4111 v 8.02569 h 57.5028 v -8.02569 h 1.4111 v 8.02569 h 10.1423 v 1.41111 h -10.1423 v 58.47289 h 11.0243 z M 1779.82,605.41556 q -1.0583,0.52916 -1.9403,1.41111 -0.8819,0.88194 -1.4111,2.02847 -0.441,1.14652 -0.441,2.38125 v 6.34999 h 28.3104 q 3.7042,0 6.8792,1.41111 3.2632,1.41111 5.6444,3.88056 2.4695,2.38125 3.8806,5.64444 0.2646,0.61736 0.5292,1.32291 v -24.95901 h -38.982 q -1.3229,0 -2.4694,0.52917 z m -3.7924,29.98609 q 0,2.02847 1.4111,3.61597 1.4993,1.49931 3.616,1.49931 h 23.2833 q 2.1167,0 3.5278,-1.49931 1.4993,-1.5875 1.4993,-3.61597 0,-2.02847 -1.4993,-3.52778 -1.4111,-1.58749 -3.5278,-1.58749 h -28.3104 z m -11.2889,-31.4854 q 1.4994,-3.52777 4.057,-6.08541 2.6458,-2.64583 6.0854,-4.14514 0.1764,-0.0882 0.441,-0.17639 h -11.5535 v 13.22916 q 0.3528,-1.41111 0.9701,-2.82222 z m 9.3487,47.88956 q -3.175,-1.41111 -5.6445,-3.79236 -2.3812,-2.46944 -3.7923,-5.64444 -0.5292,-1.23472 -0.882,-2.46944 v 12.08263 h 10.7597 q -0.2646,-0.0882 -0.4409,-0.17639 z m 46.6548,-9.4368 q -1.4111,3.175 -3.8806,5.64444 -2.3812,2.38125 -5.6444,3.79236 l -0.3528,0.17639 h 10.407 v -10.93611 q -0.2646,0.61736 -0.5292,1.32292 z"
         style="font-family:'Product Design';-inkscape-font-specification:'Product Design'"
         id="path965" /></g><path
       style="display:none;fill:url(#linearGradient1426);fill-opacity:1;stroke:#000000;stroke-width:1"
       d="M -1.4143286,208.60509 -2.8941771,911.77563 2033.8307,723.94506 c 0,0 0.2675,-159.22082 3.3703,-188.84573 C 2040.2845,505.65834 -1.4143286,208.60509 -1.4143286,208.60509 Z"
       id="path5154"
       sodipodi:nodetypes="ccccc" /><path
       id="path6114"
       style="display:none;fill:none;stroke:#fede00;stroke-width:7.9375"
       d="M 1693.1769,283.91089 A 137.5708,140.86896 0 0 1 1555.6061,424.77985 137.5708,140.86896 0 0 1 1418.0353,283.91089 137.5708,140.86896 0 0 1 1555.6061,143.04193 137.5708,140.86896 0 0 1 1693.1769,283.91089 Z" /><g
       id="g19555"
       inkscape:label="Top Right Corner"
       transform="matrix(0.95913356,0,0,0.95913356,87.227289,-7.8843922)"><path
         id="path16591"
         style="fill:#3b546e;stroke:#ffdb15;stroke-width:0"
         inkscape:label="Big Hex"
         inkscape:transform-center-x="5.7836124"
         inkscape:transform-center-y="-30.257455"
         transform="matrix(0.09980946,1.2753227,-1.2753227,0.09980946,1730.2082,-1875.7558)"
         d="m 1749.8048,208.06421 -249.684,120.5959 -229.281,-155.93466 20.4028,-276.53058 249.6839,-120.5959 229.2811,155.934671 z" /><path
         id="path16591-2-5"
         style="display:none;fill:none;stroke:#ffdb15;stroke-width:4.41651"
         inkscape:label="path16591-2-5"
         inkscape:transform-center-x="3.9212833"
         inkscape:transform-center-y="-21.691353"
         transform="matrix(0.06766979,0.91427432,-0.86465561,0.07155305,1778.7439,-1163.914)"
         d="m 1749.8048,208.06421 -249.684,120.5959 -229.281,-155.93466 20.4028,-276.53058 249.6839,-120.5959 229.2811,155.934671 z" /><path
         id="path16591-2-5-3-3"
         style="fill:none;stroke:#ffdb15;stroke-width:4.41651"
         inkscape:transform-center-x="3.09944"
         inkscape:transform-center-y="-16.788792"
         transform="matrix(0.05576739,0.73778428,-0.7125719,0.05774057,1675.1148,-784.45343)"
         d="m 1749.8048,208.06421 -249.684,120.5959 -229.281,-155.93466 20.4028,-276.53058 249.6839,-120.5959 229.2811,155.934671 z" /><path
         id="path16591-2"
         style="fill:#46a6bc;stroke:#e9a200;stroke-width:0"
         inkscape:label="Small Hex"
         inkscape:transform-center-x="2.8367119"
         inkscape:transform-center-y="-14.840712"
         transform="matrix(0.04895465,0.62552165,-0.62552165,0.04895465,1918.6447,-519.51258)"
         d="m 1749.8048,208.06421 -249.684,120.5959 -229.281,-155.93466 20.4028,-276.53058 249.6839,-120.5959 229.2811,155.934671 z" /></g><path
       id="path16591-2-5-3"
       style="fill:none;stroke:#ffdb15;stroke-width:4.41651"
       inkscape:transform-center-x="3.09944"
       inkscape:transform-center-y="-16.788792"
       transform="matrix(0.05348838,0.70763367,-0.68345162,0.05538092,808.7331,-45.614626)"
       d="m 1749.8048,208.06421 -249.684,120.5959 -229.281,-155.93466 20.4028,-276.53058 249.6839,-120.5959 229.2811,155.934671 z" /><g
       id="g22922"
       inkscape:label="Top Left Corner"><path
         id="path16591-2-5-3-9-9-7"
         style="display:inline;fill:#46a6bc;stroke-width:4.41651"
         inkscape:label="Big Hex"
         inkscape:transform-center-x="3.9079177"
         inkscape:transform-center-y="-21.612975"
         transform="matrix(0.06744056,0.91097185,-0.86172665,0.0712946,-85.260545,-1056.7899)"
         d="m 1749.8048,208.06421 -249.684,120.5959 -229.281,-155.93466 20.4028,-276.53058 249.6839,-120.5959 229.2811,155.934671 z" /><path
         id="path16591-2-5-3-9"
         style="fill:none;stroke:#ffdb15;stroke-width:4.41651"
         inkscape:transform-center-x="3.09944"
         inkscape:transform-center-y="-16.788792"
         transform="matrix(0.05348838,0.70763367,-0.68345162,0.05538092,-77.055055,-1086.3259)"
         d="m 1749.8048,208.06421 -249.684,120.5959 -229.281,-155.93466 20.4028,-276.53058 249.6839,-120.5959 229.2811,155.934671 z" /><path
         id="path16591-6"
         style="display:none;fill:#3f5e98;stroke:#ffdb15;stroke-width:0"
         inkscape:transform-center-x="5.7836124"
         inkscape:transform-center-y="-27.019019"
         transform="matrix(0.09181843,1.0476515,-1.1732168,0.08199142,-183.45293,-1259.4386)"
         d="m 1749.8048,208.06421 -249.684,120.5959 -229.281,-155.93466 20.4028,-276.53058 249.6839,-120.5959 229.2811,155.934671 z" /><path
         id="path16591-2-2"
         style="fill:#3b546e;stroke:#f8f8f8;stroke-width:0"
         inkscape:label="Small Hex"
         inkscape:transform-center-x="2.8367119"
         inkscape:transform-center-y="-14.840712"
         transform="matrix(0.0450352,0.57544061,-0.57544061,0.0450352,-34.504951,-268.80981)"
         d="m 1749.8048,208.06421 -249.684,120.5959 -229.281,-155.93466 20.4028,-276.53058 249.6839,-120.5959 229.2811,155.934671 z" /><path
         id="path16591-2-5-3-9-0"
         style="fill:none;stroke:#ffdb15;stroke-width:4.41651"
         inkscape:transform-center-x="3.09944"
         inkscape:transform-center-y="-16.788792"
         transform="matrix(0.05348838,0.70763367,-0.68345162,0.05538092,209.25894,-917.06233)"
         d="m 1749.8048,208.06421 -249.684,120.5959 -229.281,-155.93466 20.4028,-276.53058 249.6839,-120.5959 229.2811,155.934671 z" /><path
         id="path16591-2-5-3-9-2"
         style="fill:none;stroke:#ffdb15;stroke-width:4.41651"
         inkscape:transform-center-x="3.09944"
         inkscape:transform-center-y="-16.788792"
         transform="matrix(0.05348838,0.70763367,-0.68345162,0.05538092,495.39617,-1087.6488)"
         d="m 1749.8048,208.06421 -249.684,120.5959 -229.281,-155.93466 20.4028,-276.53058 249.6839,-120.5959 229.2811,155.934671 z" /><path
         id="path16591-2-5-3-9-01"
         style="fill:none;stroke:#ffdb15;stroke-width:4.41651"
         inkscape:transform-center-x="3.09944"
         inkscape:transform-center-y="-16.788792"
         transform="matrix(0.05348838,0.70763367,-0.68345162,0.05538092,-75.665881,-746.24394)"
         d="m 1749.8048,208.06421 -249.684,120.5959 -229.281,-155.93466 20.4028,-276.53058 249.6839,-120.5959 229.2811,155.934671 z" /><path
         id="path16591-2-5-3-9-9"
         style="fill:none;stroke:#ffdb15;stroke-width:4.41651"
         inkscape:transform-center-x="3.09944"
         inkscape:transform-center-y="-16.788792"
         transform="matrix(0.05348838,0.70763367,-0.68345162,0.05538092,209.8732,-574.83167)"
         d="m 1749.8048,208.06421 -249.684,120.5959 -229.281,-155.93466 20.4028,-276.53058 249.6839,-120.5959 229.2811,155.934671 z" /></g><path
       id="path16591-2-5-3-4"
       style="fill:none;stroke:#ffdb15;stroke-width:4.41651"
       inkscape:transform-center-x="3.09944"
       inkscape:transform-center-y="-16.788792"
       transform="matrix(0.05348838,0.70763367,-0.68345162,0.05538092,1093.8848,123.71964)"
       d="m 1749.8048,208.06421 -249.684,120.5959 -229.281,-155.93466 20.4028,-276.53058 249.6839,-120.5959 229.2811,155.934671 z" /><g
       aria-label="47th Annual Conference of the European Association for Computer Graphics"
       id="text23678"
       style="font-size:35.2778px;font-family:'GFS Neohellenic';-inkscape-font-specification:'GFS Neohellenic';fill:#f4f2eb;stroke:#f4f2eb;stroke-width:0"><path
         d="m 757.00947,757.53875 c -0.9525,0.17639 -1.72862,0.28222 -2.25778,0.24695 v -3.77473 -6.985 -3.73945 c -0.0353,-0.0353 -0.24695,-0.0353 -0.70556,-0.0353 -0.42333,-0.0353 -0.635,-0.0353 -0.67028,0 -0.74083,1.37584 -2.57528,4.23334 -5.57389,8.64306 -1.27,1.83445 -2.71639,3.91584 -4.30389,6.2089 v 1.65805 c 3.77472,-0.0353 6.77334,-0.0353 8.99584,0 v 3.84528 c -0.0353,0.24695 -0.17639,0.88195 -0.45861,1.86973 h 3.06916 c -0.21166,-0.91723 -0.3175,-1.5875 -0.35277,-2.04612 v -3.63361 c 0.81139,0.0353 1.55222,0.10583 2.25778,0.28222 z m -4.55084,0.35278 c -1.16417,0.0353 -3.28084,0 -6.35,-0.0353 2.68111,-4.02167 4.79778,-7.09084 6.38528,-9.24278 -0.0353,1.62278 -0.0353,4.72722 -0.0353,9.27806 z"
         id="path984" /><path
         d="m 776.87086,743.3218 c -3.31611,0.14111 -5.715,0.21166 -7.16139,0.21166 -1.86972,0 -4.26861,-0.0706 -7.26723,-0.17638 0.10584,0.81139 0.10584,2.11666 0,3.84528 h 1.76389 c 0.0353,-0.635 0.14111,-1.05834 0.3175,-1.27 0.24695,-0.3175 0.9525,-0.45862 2.18723,-0.45862 h 7.05556 c -2.71639,3.52778 -4.72723,7.05556 -5.96195,10.61862 -0.84667,2.43417 -1.51695,5.57389 -1.97556,9.3839 0,0.0353 0.88195,0.0353 2.64584,0 0.17639,-3.88056 0.91722,-7.4789 2.29305,-10.79501 1.30528,-3.13972 3.31612,-6.45584 6.10306,-10.0189 z"
         id="path986" /><path
         d="m 787.06614,751.75319 c -0.0353,0.0353 -1.19944,0.0353 -3.45722,0.0353 v -4.58611 l -2.11667,0.91722 v 3.66889 h -2.04611 v 0.74083 c 0,0.49389 0,0.74084 -0.0353,0.77612 h 2.04611 c -0.0353,3.28083 -0.0705,5.29167 -0.10583,6.0325 -0.0706,2.08139 -0.10583,3.21028 -0.10583,3.38667 0,2.01083 0.28222,3.03389 0.81139,3.06917 0.9525,0.0353 2.11666,-0.42334 3.4925,-1.34056 -0.3175,-0.84667 -0.49389,-1.34056 -0.59972,-1.48167 -0.14112,0.0353 -0.84667,0.635 -1.12889,0.635 -0.28223,0 -0.42334,-0.635 -0.42334,-1.94028 0,0.81139 0.0353,0.0353 0.0706,-2.39889 l 0.14111,-5.99722 h 3.45722 z"
         id="path988" /><path
         d="m 801.7417,765.47626 c 0,0.14111 -0.0353,-1.05834 -0.0706,-2.75167 v -4.16278 c 0,-2.75167 -0.38805,-4.69195 -1.19944,-5.82084 -0.74084,-1.02306 -1.905,-1.51694 -3.52778,-1.51694 -1.72861,0 -3.31611,0.635 -4.7625,1.94027 v -1.37583 c 0,-3.42195 0.0706,-5.89139 0.17638,-7.47889 h -2.39889 c 0.14111,1.16416 0.21167,3.66889 0.21167,7.51417 v 1.65805 c 0,5.53862 -0.0353,9.56029 -0.14111,11.99446 h 2.29306 c 0,0.0353 -0.0353,-0.67028 -0.0706,-2.15195 -0.0353,-1.5875 -0.0353,-2.99861 -0.0706,-4.23333 0,-1.76389 0,-3.10445 0.0353,-4.02167 0.38806,-0.35278 0.81139,-0.70556 1.19945,-1.09362 0.9525,-0.67027 2.01083,-0.98777 3.21028,-0.9525 1.16417,0.0353 1.94028,0.67028 2.36361,1.905 0.24695,0.74084 0.35278,1.94028 0.38806,3.59834 v 2.82222 c -0.0353,1.44639 -0.0353,2.82223 -0.0353,4.12751 z"
         id="path990" /><path
         d="m 839.13623,765.47626 c -0.49389,-0.84667 -2.08139,-4.83306 -4.72723,-11.9239 -1.12889,-2.96333 -2.43417,-6.42056 -3.88056,-10.40695 h -2.50472 c -4.69195,12.59417 -7.62,20.03779 -8.78417,22.33085 h 2.82222 c 0.21167,-0.9525 1.05834,-3.35139 2.57528,-7.23195 h 8.85473 c 1.44639,4.05695 2.25778,6.45584 2.43417,7.23195 z m -13.75834,-9.3839 c 1.94028,-5.08 3.24555,-8.60778 3.88055,-10.61862 1.02306,3.3514 2.18723,6.91445 3.49251,10.61862 z"
         id="path992" /><path
         d="m 854.30571,765.47626 c 0,0.24694 0,-0.45861 -0.0353,-2.04612 -0.0353,-1.62277 -0.0353,-3.13972 -0.0353,-4.55083 0,-2.75167 -0.38805,-4.69195 -1.19944,-5.82084 -0.74084,-1.02306 -1.905,-1.51694 -3.52778,-1.51694 -1.72862,0 -3.31612,0.635 -4.72723,1.86972 l 0.0353,-1.65806 -2.15195,0.0353 c 0.0353,0.81139 0.0353,1.37583 0.0353,1.65806 0,5.57389 -0.0353,9.59556 -0.10583,12.02973 h 2.29305 v -10.16001 l 1.16417,-1.05833 c 0.88195,-0.635 1.94028,-0.9525 3.13973,-0.91723 1.16416,0.0353 1.94028,0.67028 2.36361,1.905 0.24694,0.74084 0.35278,1.94028 0.38805,3.59834 0.0353,0.81139 0.0353,1.69334 0,2.64584 -0.0353,1.30527 -0.0353,2.64583 -0.0353,3.98639 z"
         id="path994" /><path
         d="m 870.95684,765.47626 c 0,0.24694 0,-0.45861 -0.0353,-2.04612 -0.0353,-1.62277 -0.0353,-3.13972 -0.0353,-4.55083 0,-2.75167 -0.38805,-4.69195 -1.19944,-5.82084 -0.74084,-1.02306 -1.905,-1.51694 -3.52778,-1.51694 -1.72862,0 -3.31612,0.635 -4.72723,1.86972 l 0.0353,-1.65806 -2.15195,0.0353 c 0.0353,0.81139 0.0353,1.37583 0.0353,1.65806 0,5.57389 -0.0353,9.59556 -0.10583,12.02973 h 2.29305 v -10.16001 l 1.16417,-1.05833 c 0.88195,-0.635 1.94028,-0.9525 3.13973,-0.91723 1.16416,0.0353 1.94028,0.67028 2.36361,1.905 0.24694,0.74084 0.35278,1.94028 0.38806,3.59834 0.0353,0.81139 0.0353,1.69334 0,2.64584 -0.0353,1.30527 -0.0353,2.64583 -0.0353,3.98639 z"
         id="path996" /><path
         d="m 889.47768,764.4532 c -0.3175,-0.84667 -0.49388,-1.34056 -0.59972,-1.48167 -0.14111,0.0353 -0.9525,0.59973 -1.19944,0.59973 -0.0353,0 -0.0706,-0.0353 -0.10584,-0.0706 0,-5.36223 0.0353,-9.27806 0.14111,-11.71223 h -2.29305 c 0,0.0706 -0.0353,1.48167 -0.0706,4.19806 -0.0353,2.96333 -0.0706,4.97417 -0.10583,6.0325 l -1.16417,1.05834 c -0.88194,0.635 -1.94028,0.9525 -3.13972,0.91722 -1.16417,-0.0353 -1.94028,-0.67028 -2.36362,-1.905 -0.24694,-0.74084 -0.35277,-1.94028 -0.38805,-3.59834 -0.0353,-0.84666 0,-1.72861 0.0353,-2.68111 0.10583,-1.48167 0.14111,-2.82222 0.17638,-4.02167 h -2.39889 c 0,-0.0706 0,0.10583 -0.0353,0.56445 -0.0353,0.52916 -0.0353,1.19944 -0.0353,2.01083 -0.0353,1.23472 -0.0353,2.61056 -0.0353,4.09222 0,2.75167 0.38806,4.69195 1.19945,5.82084 0.70555,1.02306 1.86972,1.51695 3.52778,1.51695 1.72861,0 3.31611,-0.635 4.72722,-1.86973 0.0353,1.16417 0.21167,1.79917 0.59972,1.86973 0.59973,0.14111 1.79917,-0.3175 3.52778,-1.34056 z"
         id="path998" /><path
         d="m 899.91992,757.08014 c -1.72861,0.28222 -3.03389,0.49389 -3.98639,0.59972 -1.23473,0.17639 -2.25778,0.635 -2.99862,1.34056 -0.81139,0.77611 -1.19944,1.76389 -1.19944,2.92806 0,2.11667 1.62278,3.88056 3.88056,3.88056 1.83444,-0.0353 3.31611,-0.59973 4.40972,-1.76389 0.28222,1.16416 1.02306,1.72861 2.25778,1.72861 0.59972,0 1.27,-0.42334 2.04611,-1.23473 v -1.905 c -0.9525,0.70556 -1.48166,1.05834 -1.65805,1.05834 -0.38806,0 -0.59973,-0.28223 -0.59973,-0.81139 v -7.26723 c 0,-1.51694 -0.49389,-2.61056 -1.44639,-3.35139 -0.81139,-0.635 -1.905,-0.9525 -3.24555,-0.91722 -2.08139,0.0353 -3.73945,0.77611 -4.97417,2.2225 v 2.11667 c 0.98777,-1.30528 3.175,-2.50473 4.90361,-2.61056 1.72861,-0.10583 2.57528,0.635 2.61056,2.2225 z m 0.10583,5.22112 c -0.42333,0.38805 -1.05833,0.74083 -1.94028,1.12888 -0.88194,0.35278 -1.55222,0.52917 -2.08139,0.52917 -1.30528,0 -2.2225,-0.98778 -2.2225,-2.29306 0,-1.09361 1.12889,-2.01083 2.68111,-2.25777 1.65806,-0.24695 2.85751,-0.38806 3.56306,-0.49389 z"
         id="path1000" /><path
         d="m 907.46934,744.30958 c 0.17639,2.01083 0.24695,5.08 0.21167,9.17222 0,5.53862 -0.0353,9.56029 -0.14111,11.99446 h 2.29306 c 0,0.24694 -0.0353,-1.41111 -0.0706,-4.97417 -0.0353,-3.49251 -0.0705,-5.92667 -0.0705,-7.33779 0.0353,-3.91583 0.0705,-6.84389 0.17638,-8.85472 z"
         id="path1002" /><path
         d="m 941.15969,761.73681 c -0.14111,0.59972 -0.3175,0.98778 -0.56444,1.23472 -0.52917,0.52917 -1.48167,0.77612 -2.89278,0.77612 -2.29306,0 -4.19806,-0.95251 -5.71501,-2.85751 -1.37583,-1.76389 -2.08139,-3.84528 -2.08139,-6.24417 0,-2.57528 0.635,-4.72722 1.86972,-6.49111 1.37584,-1.905 3.21028,-2.89278 5.5739,-2.96334 1.55222,-0.0353 2.61055,0.21167 3.21028,0.74084 0.24694,0.49388 0.38805,0.91722 0.42333,1.23472 h 1.65806 c -0.17639,-1.62278 -0.28222,-2.75167 -0.28222,-3.35139 -0.17639,0.0353 -0.77612,-0.0706 -1.83445,-0.3175 -1.02306,-0.24695 -2.04611,-0.38806 -3.06917,-0.38806 -3.13972,0 -5.60917,1.16417 -7.44362,3.45723 -1.69333,2.11666 -2.54,4.79778 -2.54,8.04333 0,2.96334 0.88195,5.53862 2.68112,7.72584 1.86972,2.32834 4.26861,3.49251 7.19667,3.49251 1.09361,0 2.2225,-0.14112 3.38667,-0.45862 1.02305,-0.24694 1.65805,-0.38805 1.83444,-0.35277 0,-0.59973 0.0706,-1.69334 0.24695,-3.28084 z"
         id="path1004" /><path
         d="m 959.82165,758.63236 c 0,-2.11666 -0.635,-3.81 -1.94028,-5.11528 -1.30527,-1.30528 -2.99861,-1.94028 -5.15055,-1.94028 -2.11667,0 -3.84528,0.67028 -5.18584,2.01084 -1.30528,1.30528 -1.97556,2.96333 -2.01084,4.97417 -0.0353,2.04611 0.59973,3.73945 1.90501,5.08 1.37583,1.41111 3.13972,2.11667 5.29167,2.11667 2.01083,0 3.66889,-0.67028 5.04472,-1.97556 1.37584,-1.30528 2.04611,-3.03389 2.04611,-5.15056 z m -2.15194,0 c -0.0353,3.13973 -2.08139,5.18584 -4.86834,5.18584 -1.44639,0 -2.64583,-0.49389 -3.66889,-1.51694 -0.98778,-1.02306 -1.48167,-2.25778 -1.48167,-3.6689 0,-1.48166 0.49389,-2.71639 1.44639,-3.70417 0.98778,-0.98777 2.2225,-1.48166 3.70417,-1.48166 2.92806,0 4.90362,2.2225 4.86834,5.18583 z"
         id="path1006" /><path
         d="m 975.34391,765.47626 c 0,0.24694 0,-0.45861 -0.0353,-2.04612 -0.0353,-1.62277 -0.0353,-3.13972 -0.0353,-4.55083 0,-2.75167 -0.38805,-4.69195 -1.19944,-5.82084 -0.74084,-1.02306 -1.905,-1.51694 -3.52778,-1.51694 -1.72862,0 -3.31612,0.635 -4.72723,1.86972 l 0.0353,-1.65806 -2.15195,0.0353 c 0.0353,0.81139 0.0353,1.37583 0.0353,1.65806 0,5.57389 -0.0353,9.59556 -0.10583,12.02973 h 2.29305 v -10.16001 l 1.16417,-1.05833 c 0.88195,-0.635 1.94028,-0.9525 3.13973,-0.91723 1.16416,0.0353 1.94028,0.67028 2.36361,1.905 0.24694,0.74084 0.35278,1.94028 0.38805,3.59834 0.0353,0.81139 0.0353,1.69334 0,2.64584 -0.0353,1.30527 -0.0353,2.64583 -0.0353,3.98639 z"
         id="path1008" /><path
         d="m 988.89058,745.05041 c -0.35277,-0.0706 -0.9525,-0.28222 -1.76389,-0.67028 -0.67027,-0.3175 -1.34055,-0.45861 -1.97555,-0.45861 -1.83445,-0.0353 -3.06917,0.635 -3.66889,1.97556 -0.35278,0.74083 -0.52917,2.64583 -0.49389,5.64445 -1.16417,0.0353 -1.94028,-0.0353 -2.29306,-0.17639 v 2.04611 c 0.3175,-0.10583 1.09361,-0.17639 2.32833,-0.21167 v 1.34056 c 0,6.10306 -0.0706,9.77195 -0.21166,10.9714 h 2.36361 c -0.0353,-1.05834 -0.0706,-4.72723 -0.0706,-11.04196 v -1.27 c 2.50473,0.0353 3.91584,0.14111 4.23334,0.3175 v -2.39889 c -0.24694,0.17639 -1.65806,0.28222 -4.23334,0.38806 0,-2.2225 0.0353,-3.59834 0.14112,-4.09223 0.21166,-1.05833 0.74083,-1.62278 1.62277,-1.69333 1.16417,-0.10583 2.50473,0.56444 4.02167,2.08139 z"
         id="path1010" /><path
         d="m 995.76975,751.5768 c -2.15195,0 -3.56306,0.635 -4.86834,2.04612 -1.23472,1.34055 -1.86972,2.99861 -1.905,4.97417 -0.0353,2.08139 0.59972,3.77472 1.86972,5.15056 1.27,1.34055 2.89278,2.04611 4.86834,2.04611 1.76389,0 3.56306,-0.45861 5.43283,-1.65806 l -1.0231,-1.86972 c -1.23473,1.09361 -2.61056,1.55222 -3.9864,1.55222 -1.34055,0 -2.32833,-0.38806 -3.38667,-1.37583 -1.09361,-1.02306 -1.62277,-2.25778 -1.5875,-3.77473 v -0.14111 h 10.68917 c 0.035,-2.08139 -0.4586,-3.73945 -1.4464,-4.97417 -1.05832,-1.30528 -2.57526,-1.97556 -4.65665,-1.97556 z m -4.23334,5.08001 c 0.70556,-1.94028 2.29306,-3.17501 4.02167,-3.17501 2.2225,0 3.4925,1.05834 3.73945,3.17501 z"
         id="path1012" /><path
         d="m 1011.6447,751.75319 c -0.388,-0.17639 -0.8114,-0.24694 -1.27,-0.24694 -1.8697,0.0353 -3.0339,0.91722 -3.563,2.71639 l 0.035,-2.43417 h -2.2225 c 0.035,0.84667 0.071,1.41111 0.1058,1.72861 0.07,5.71501 0.07,9.7014 0,11.99446 l 2.2578,-0.0353 c 0,0.10583 -0.035,-0.81139 -0.071,-2.71639 -0.035,-1.905 -0.035,-3.42195 -0.035,-4.58612 -0.035,-0.98778 0.1764,-1.94028 0.635,-2.8575 0.6703,-1.23472 1.6934,-1.86972 3.0692,-1.86972 0.2822,0 0.635,0.14111 1.0583,0.45861 z"
         id="path1014" /><path
         d="m 1019.7939,751.5768 c -2.1519,0 -3.563,0.635 -4.8683,2.04612 -1.2347,1.34055 -1.8697,2.99861 -1.905,4.97417 -0.035,2.08139 0.5997,3.77472 1.8697,5.15056 1.27,1.34055 2.8928,2.04611 4.8683,2.04611 1.7639,0 3.5631,-0.45861 5.4328,-1.65806 l -1.023,-1.86972 c -1.2348,1.09361 -2.6106,1.55222 -3.9864,1.55222 -1.3406,0 -2.3284,-0.38806 -3.3867,-1.37583 -1.0936,-1.02306 -1.6228,-2.25778 -1.5875,-3.77473 v -0.14111 h 10.6892 c 0.035,-2.08139 -0.4586,-3.73945 -1.4464,-4.97417 -1.0583,-1.30528 -2.5753,-1.97556 -4.6567,-1.97556 z m -4.2333,5.08001 c 0.7055,-1.94028 2.293,-3.17501 4.0217,-3.17501 2.2225,0 3.4925,1.05834 3.7394,3.17501 z"
         id="path1016" /><path
         d="m 1041.1722,765.47626 c 0,0.24694 0,-0.45861 -0.035,-2.04612 -0.035,-1.62277 -0.035,-3.13972 -0.035,-4.55083 0,-2.75167 -0.3881,-4.69195 -1.1995,-5.82084 -0.7408,-1.02306 -1.905,-1.51694 -3.5277,-1.51694 -1.7286,0 -3.3161,0.635 -4.7273,1.86972 l 0.035,-1.65806 -2.1519,0.0353 c 0.035,0.81139 0.035,1.37583 0.035,1.65806 0,5.57389 -0.035,9.59556 -0.1058,12.02973 h 2.2931 v -10.16001 l 1.1641,-1.05833 c 0.882,-0.635 1.9403,-0.9525 3.1398,-0.91723 1.1641,0.0353 1.9402,0.67028 2.3636,1.905 0.2469,0.74084 0.3528,1.94028 0.388,3.59834 0.035,0.81139 0.035,1.69334 0,2.64584 -0.035,1.30527 -0.035,2.64583 -0.035,3.98639 z"
         id="path1018" /><path
         d="m 1055.2481,763.07737 c -1.0936,0.49389 -2.0814,0.74083 -2.9633,0.74083 -1.4464,-0.0353 -2.6459,-0.52917 -3.6337,-1.51694 -0.9525,-1.02306 -1.4463,-2.22251 -1.4463,-3.63362 0.035,-2.46944 0.9877,-4.09222 2.8927,-4.83306 0.635,-0.24694 1.3759,-0.38805 2.2225,-0.38805 0.8114,0 1.6934,0.14111 2.6459,0.38805 l 0.3175,-1.86972 c -1.3759,-0.38806 -2.7164,-0.49389 -4.0217,-0.35278 -1.8697,0.21167 -3.3514,0.9525 -4.5156,2.25778 -1.1288,1.30528 -1.6933,2.8575 -1.7286,4.69195 -0.035,2.08139 0.5998,3.81 1.8698,5.18584 1.3758,1.44638 3.1397,2.11666 5.3269,2.01083 0.8467,-0.0353 1.5875,-0.14111 2.2225,-0.3175 0.3528,-0.10583 0.8114,-0.3175 1.4111,-0.56445 z"
         id="path1020" /><path
         d="m 1064.9142,751.5768 c -2.1519,0 -3.563,0.635 -4.8683,2.04612 -1.2347,1.34055 -1.8697,2.99861 -1.905,4.97417 -0.035,2.08139 0.5997,3.77472 1.8697,5.15056 1.27,1.34055 2.8928,2.04611 4.8683,2.04611 1.7639,0 3.5631,-0.45861 5.4328,-1.65806 l -1.023,-1.86972 c -1.2348,1.09361 -2.6106,1.55222 -3.9864,1.55222 -1.3406,0 -2.3284,-0.38806 -3.3867,-1.37583 -1.0936,-1.02306 -1.6228,-2.25778 -1.5875,-3.77473 v -0.14111 h 10.6892 c 0.035,-2.08139 -0.4586,-3.73945 -1.4464,-4.97417 -1.0583,-1.30528 -2.5753,-1.97556 -4.6567,-1.97556 z m -4.2333,5.08001 c 0.7055,-1.94028 2.293,-3.17501 4.0217,-3.17501 2.2225,0 3.4925,1.05834 3.7394,3.17501 z"
         id="path1022" /><path
         d="m 1101.8148,758.63236 c 0,-2.11666 -0.635,-3.81 -1.9403,-5.11528 -1.3053,-1.30528 -2.9986,-1.94028 -5.1505,-1.94028 -2.1167,0 -3.8453,0.67028 -5.1859,2.01084 -1.3053,1.30528 -1.9755,2.96333 -2.0108,4.97417 -0.035,2.04611 0.5997,3.73945 1.905,5.08 1.3758,1.41111 3.1397,2.11667 5.2917,2.11667 2.0108,0 3.6689,-0.67028 5.0447,-1.97556 1.3758,-1.30528 2.0461,-3.03389 2.0461,-5.15056 z m -2.1519,0 c -0.035,3.13973 -2.0814,5.18584 -4.8684,5.18584 -1.4464,0 -2.6458,-0.49389 -3.6689,-1.51694 -0.9877,-1.02306 -1.4816,-2.25778 -1.4816,-3.6689 0,-1.48166 0.4939,-2.71639 1.4464,-3.70417 0.9877,-0.98777 2.2225,-1.48166 3.7041,-1.48166 2.9281,0 4.9036,2.2225 4.8684,5.18583 z"
         id="path1024" /><path
         d="m 1114.2326,745.05041 c -0.3528,-0.0706 -0.9525,-0.28222 -1.7639,-0.67028 -0.6703,-0.3175 -1.3406,-0.45861 -1.9756,-0.45861 -1.8344,-0.0353 -3.0691,0.635 -3.6688,1.97556 -0.3528,0.74083 -0.5292,2.64583 -0.4939,5.64445 -1.1642,0.0353 -1.9403,-0.0353 -2.2931,-0.17639 v 2.04611 c 0.3175,-0.10583 1.0936,-0.17639 2.3283,-0.21167 v 1.34056 c 0,6.10306 -0.071,9.77195 -0.2116,10.9714 h 2.3636 c -0.035,-1.05834 -0.071,-4.72723 -0.071,-11.04196 v -1.27 c 2.5048,0.0353 3.9159,0.14111 4.2334,0.3175 v -2.39889 c -0.247,0.17639 -1.6581,0.28222 -4.2334,0.38806 0,-2.2225 0.035,-3.59834 0.1411,-4.09223 0.2117,-1.05833 0.7409,-1.62278 1.6228,-1.69333 1.1642,-0.10583 2.5047,0.56444 4.0217,2.08139 z"
         id="path1026" /><path
         d="m 1135.5404,751.75319 c -0.035,0.0353 -1.1994,0.0353 -3.4572,0.0353 v -4.58611 l -2.1167,0.91722 v 3.66889 h -2.0461 v 0.74083 c 0,0.49389 0,0.74084 -0.035,0.77612 h 2.0461 c -0.035,3.28083 -0.071,5.29167 -0.1058,6.0325 -0.071,2.08139 -0.1058,3.21028 -0.1058,3.38667 0,2.01083 0.2822,3.03389 0.8114,3.06917 0.9525,0.0353 2.1166,-0.42334 3.4925,-1.34056 -0.3175,-0.84667 -0.4939,-1.34056 -0.5998,-1.48167 -0.1411,0.0353 -0.8466,0.635 -1.1289,0.635 -0.2822,0 -0.4233,-0.635 -0.4233,-1.94028 0,0.81139 0.035,0.0353 0.071,-2.39889 l 0.1411,-5.99722 h 3.4572 z"
         id="path1028" /><path
         d="m 1150.216,765.47626 c 0,0.14111 -0.035,-1.05834 -0.071,-2.75167 v -4.16278 c 0,-2.75167 -0.388,-4.69195 -1.1994,-5.82084 -0.7409,-1.02306 -1.905,-1.51694 -3.5278,-1.51694 -1.7286,0 -3.3161,0.635 -4.7625,1.94027 v -1.37583 c 0,-3.42195 0.071,-5.89139 0.1764,-7.47889 h -2.3989 c 0.1411,1.16416 0.2117,3.66889 0.2117,7.51417 v 1.65805 c 0,5.53862 -0.035,9.56029 -0.1412,11.99446 h 2.2931 c 0,0.0353 -0.035,-0.67028 -0.071,-2.15195 -0.035,-1.5875 -0.035,-2.99861 -0.071,-4.23333 0,-1.76389 0,-3.10445 0.035,-4.02167 0.388,-0.35278 0.8114,-0.70556 1.1994,-1.09362 0.9525,-0.67027 2.0109,-0.98777 3.2103,-0.9525 1.1642,0.0353 1.9403,0.67028 2.3636,1.905 0.247,0.74084 0.3528,1.94028 0.3881,3.59834 v 2.82222 c -0.035,1.44639 -0.035,2.82223 -0.035,4.12751 z"
         id="path1030" /><path
         d="m 1160.8346,751.5768 c -2.1519,0 -3.563,0.635 -4.8683,2.04612 -1.2347,1.34055 -1.8697,2.99861 -1.905,4.97417 -0.035,2.08139 0.5997,3.77472 1.8697,5.15056 1.27,1.34055 2.8928,2.04611 4.8683,2.04611 1.7639,0 3.5631,-0.45861 5.4328,-1.65806 l -1.023,-1.86972 c -1.2347,1.09361 -2.6106,1.55222 -3.9864,1.55222 -1.3406,0 -2.3284,-0.38806 -3.3867,-1.37583 -1.0936,-1.02306 -1.6228,-2.25778 -1.5875,-3.77473 v -0.14111 h 10.6892 c 0.035,-2.08139 -0.4586,-3.73945 -1.4464,-4.97417 -1.0583,-1.30528 -2.5753,-1.97556 -4.6567,-1.97556 z m -4.2333,5.08001 c 0.7055,-1.94028 2.293,-3.17501 4.0217,-3.17501 2.2225,0 3.4925,1.05834 3.7394,3.17501 z"
         id="path1032" /><path
         d="m 1199.2874,765.65265 c -0.1058,-0.81139 -0.1058,-2.08139 0,-3.81001 h -1.7286 c -0.071,0.52917 -0.1764,0.88195 -0.3175,1.09362 -0.2116,0.28222 -0.9525,0.42333 -2.2225,0.42333 h -7.4436 c -0.035,-2.99861 -0.035,-5.78556 0,-8.39612 4.7625,-0.0706 7.7258,0.0706 8.8195,0.42334 v -3.03389 c -0.7409,0.3175 -3.6689,0.49388 -8.8195,0.49388 -0.035,-2.57528 -0.035,-4.97417 0,-7.16139 h 6.5264 c 1.3758,0 2.1519,0.0706 2.2578,0.24695 0.1411,0.14111 0.2116,0.24694 0.2116,0.3175 0.035,0.0353 0.035,0.24694 0.071,0.56444 h 1.7639 c -0.1058,-1.44639 -0.1058,-2.57528 0,-3.38667 -2.9986,0.14111 -5.4328,0.21167 -7.3025,0.17639 -2.54,-0.0353 -4.6214,-0.10583 -6.2089,-0.21167 0.2469,0.81139 0.3528,4.37445 0.3528,10.6539 0,6.94973 -0.1059,10.83028 -0.3528,11.64167 3.2808,-0.10583 5.6797,-0.17638 7.1261,-0.21166 1.8697,-0.0353 4.2686,0.0353 7.2672,0.17639 z"
         id="path1034" /><path
         d="m 1216.7499,764.4532 c -0.3175,-0.84667 -0.4938,-1.34056 -0.5997,-1.48167 -0.1411,0.0353 -0.9525,0.59973 -1.1994,0.59973 -0.035,0 -0.071,-0.0353 -0.1059,-0.0706 0,-5.36223 0.035,-9.27806 0.1412,-11.71223 h -2.2931 c 0,0.0706 -0.035,1.48167 -0.071,4.19806 -0.035,2.96333 -0.071,4.97417 -0.1058,6.0325 l -1.1642,1.05834 c -0.8819,0.635 -1.9402,0.9525 -3.1397,0.91722 -1.1641,-0.0353 -1.9403,-0.67028 -2.3636,-1.905 -0.2469,-0.74084 -0.3528,-1.94028 -0.388,-3.59834 -0.035,-0.84666 0,-1.72861 0.035,-2.68111 0.1059,-1.48167 0.1411,-2.82222 0.1764,-4.02167 h -2.3989 c 0,-0.0706 0,0.10583 -0.035,0.56445 -0.035,0.52916 -0.035,1.19944 -0.035,2.01083 -0.035,1.23472 -0.035,2.61056 -0.035,4.09222 0,2.75167 0.388,4.69195 1.1994,5.82084 0.7056,1.02306 1.8698,1.51695 3.5278,1.51695 1.7286,0 3.3161,-0.635 4.7272,-1.86973 0.035,1.16417 0.2117,1.79917 0.5998,1.86973 0.5997,0.14111 1.7991,-0.3175 3.5277,-1.34056 z"
         id="path1036" /><path
         d="m 1226.2749,751.75319 c -0.388,-0.17639 -0.8114,-0.24694 -1.27,-0.24694 -1.8697,0.0353 -3.0339,0.91722 -3.563,2.71639 l 0.035,-2.43417 h -2.2225 c 0.035,0.84667 0.071,1.41111 0.1059,1.72861 0.071,5.71501 0.071,9.7014 0,11.99446 l 2.2578,-0.0353 c 0,0.10583 -0.035,-0.81139 -0.071,-2.71639 -0.035,-1.905 -0.035,-3.42195 -0.035,-4.58612 -0.035,-0.98778 0.1764,-1.94028 0.635,-2.8575 0.6703,-1.23472 1.6934,-1.86972 3.0692,-1.86972 0.2822,0 0.635,0.14111 1.0583,0.45861 z"
         id="path1038" /><path
         d="m 1241.9383,758.63236 c 0,-2.11666 -0.635,-3.81 -1.9403,-5.11528 -1.3053,-1.30528 -2.9986,-1.94028 -5.1505,-1.94028 -2.1167,0 -3.8453,0.67028 -5.1859,2.01084 -1.3052,1.30528 -1.9755,2.96333 -2.0108,4.97417 -0.035,2.04611 0.5997,3.73945 1.905,5.08 1.3758,1.41111 3.1397,2.11667 5.2917,2.11667 2.0108,0 3.6689,-0.67028 5.0447,-1.97556 1.3758,-1.30528 2.0461,-3.03389 2.0461,-5.15056 z m -2.1519,0 c -0.035,3.13973 -2.0814,5.18584 -4.8684,5.18584 -1.4464,0 -2.6458,-0.49389 -3.6689,-1.51694 -0.9877,-1.02306 -1.4816,-2.25778 -1.4816,-3.6689 0,-1.48166 0.4939,-2.71639 1.4464,-3.70417 0.9877,-0.98777 2.2225,-1.48166 3.7041,-1.48166 2.9281,0 4.9036,2.2225 4.8684,5.18583 z"
         id="path1040" /><path
         d="m 1258.6953,758.59709 c 0,-2.11667 -0.6703,-3.84528 -2.0461,-5.15056 -1.3759,-1.30528 -3.0339,-1.97556 -5.0448,-1.97556 -1.6227,0 -3.175,0.59972 -3.81,1.51695 l 0.1411,-1.23473 h -2.293 c 0.035,0.67028 0.035,1.51695 0.071,2.57528 0.035,2.8575 0.035,5.78556 0.071,8.71362 v 2.50472 c 0.035,3.88056 -0.035,6.45584 -0.2117,7.76112 h 2.3989 c -0.1058,-1.5875 -0.1764,-4.16278 -0.1764,-7.72584 v -1.37583 c 0.8467,1.05833 2.1167,1.5875 3.81,1.5875 2.152,0 3.8453,-0.67028 5.1506,-1.97556 1.3053,-1.34056 1.9403,-3.06917 1.9403,-5.22111 z m -7.0203,-5.18584 c 2.7869,0 4.833,2.04611 4.8683,5.18584 0.035,1.48166 -0.4233,2.75166 -1.3405,3.77472 -0.9173,1.02306 -2.0814,1.55222 -3.5278,1.55222 -1.5875,0 -2.8928,-0.56444 -3.8806,-1.69333 -0.035,-1.5875 0,-3.95111 0.071,-7.12612 1.023,-1.12889 2.293,-1.69333 3.81,-1.69333 z"
         id="path1042" /><path
         d="m 1268.185,751.5768 c -2.1519,0 -3.5631,0.635 -4.8683,2.04612 -1.2348,1.34055 -1.8698,2.99861 -1.905,4.97417 -0.035,2.08139 0.5997,3.77472 1.8697,5.15056 1.27,1.34055 2.8928,2.04611 4.8683,2.04611 1.7639,0 3.5631,-0.45861 5.4328,-1.65806 l -1.0231,-1.86972 c -1.2347,1.09361 -2.6105,1.55222 -3.9863,1.55222 -1.3406,0 -2.3284,-0.38806 -3.3867,-1.37583 -1.0936,-1.02306 -1.6228,-2.25778 -1.5875,-3.77473 v -0.14111 h 10.6892 c 0.035,-2.08139 -0.4587,-3.73945 -1.4464,-4.97417 -1.0584,-1.30528 -2.5753,-1.97556 -4.6567,-1.97556 z m -4.2333,5.08001 c 0.7055,-1.94028 2.293,-3.17501 4.0216,-3.17501 2.2225,0 3.4925,1.05834 3.7395,3.17501 z"
         id="path1044" /><path
         d="m 1284.9772,757.08014 c -1.7286,0.28222 -3.0339,0.49389 -3.9864,0.59972 -1.2347,0.17639 -2.2578,0.635 -2.9986,1.34056 -0.8114,0.77611 -1.1994,1.76389 -1.1994,2.92806 0,2.11667 1.6227,3.88056 3.8805,3.88056 1.8345,-0.0353 3.3161,-0.59973 4.4097,-1.76389 0.2823,1.16416 1.0231,1.72861 2.2578,1.72861 0.5998,0 1.27,-0.42334 2.0461,-1.23473 v -1.905 c -0.9525,0.70556 -1.4816,1.05834 -1.658,1.05834 -0.3881,0 -0.5997,-0.28223 -0.5997,-0.81139 v -7.26723 c 0,-1.51694 -0.4939,-2.61056 -1.4464,-3.35139 -0.8114,-0.635 -1.905,-0.9525 -3.2456,-0.91722 -2.0814,0.0353 -3.7394,0.77611 -4.9742,2.2225 v 2.11667 c 0.9878,-1.30528 3.175,-2.50473 4.9037,-2.61056 1.7286,-0.10583 2.5752,0.635 2.6105,2.2225 z m 0.1058,5.22112 c -0.4233,0.38805 -1.0583,0.74083 -1.9402,1.12888 -0.882,0.35278 -1.5523,0.52917 -2.0814,0.52917 -1.3053,0 -2.2225,-0.98778 -2.2225,-2.29306 0,-1.09361 1.1289,-2.01083 2.6811,-2.25777 1.658,-0.24695 2.8575,-0.38806 3.563,-0.49389 z"
         id="path1046" /><path
         d="m 1304.5564,765.47626 c 0,0.24694 0,-0.45861 -0.035,-2.04612 -0.035,-1.62277 -0.035,-3.13972 -0.035,-4.55083 0,-2.75167 -0.388,-4.69195 -1.1994,-5.82084 -0.7409,-1.02306 -1.905,-1.51694 -3.5278,-1.51694 -1.7286,0 -3.3161,0.635 -4.7272,1.86972 l 0.035,-1.65806 -2.1519,0.0353 c 0.035,0.81139 0.035,1.37583 0.035,1.65806 0,5.57389 -0.035,9.59556 -0.1059,12.02973 h 2.2931 v -10.16001 l 1.1642,-1.05833 c 0.8819,-0.635 1.9402,-0.9525 3.1397,-0.91723 1.1642,0.0353 1.9403,0.67028 2.3636,1.905 0.2469,0.74084 0.3528,1.94028 0.3881,3.59834 0.035,0.81139 0.035,1.69334 0,2.64584 -0.035,1.30527 -0.035,2.64583 -0.035,3.98639 z"
         id="path1048" /><path
         d="m 1341.9509,765.47626 c -0.4939,-0.84667 -2.0814,-4.83306 -4.7273,-11.9239 -1.1289,-2.96333 -2.4341,-6.42056 -3.8805,-10.40695 h -2.5047 c -4.692,12.59417 -7.62,20.03779 -8.7842,22.33085 h 2.8222 c 0.2117,-0.9525 1.0583,-3.35139 2.5753,-7.23195 h 8.8547 c 1.4464,4.05695 2.2578,6.45584 2.4342,7.23195 z m -13.7584,-9.3839 c 1.9403,-5.08 3.2456,-8.60778 3.8806,-10.61862 1.023,3.3514 2.1872,6.91445 3.4925,10.61862 z"
         id="path1050" /><path
         d="m 1350.982,765.22931 c 1.6581,-0.74083 2.4694,-1.94028 2.4694,-3.59833 0,-1.16417 -0.4586,-2.18723 -1.4111,-2.99862 -0.7408,-0.67027 -1.7286,-1.16416 -2.8927,-1.48166 -2.0109,-0.52917 -2.9987,-1.19945 -2.9634,-2.01084 0.035,-0.52917 0.2822,-0.9525 0.7761,-1.30528 0.4586,-0.28222 0.9173,-0.42333 1.4464,-0.42333 1.2347,0.0353 2.3989,0.35278 3.4925,1.02306 v -2.36362 c -0.1764,-0.0353 -0.7408,-0.14111 -1.6228,-0.35278 -0.7055,-0.17638 -1.2347,-0.24694 -1.5522,-0.24694 -1.3053,0 -2.3989,0.35278 -3.2103,1.02306 -0.8819,0.74083 -1.3405,1.65805 -1.3405,2.82222 0,1.23472 0.4233,2.11667 1.3053,2.68111 1.658,0.74084 2.9633,1.27 3.9158,1.55223 1.3758,0.59972 2.0108,1.34055 1.9403,2.2225 -0.1411,1.41111 -1.4817,2.18722 -3.0339,2.18722 -0.247,0 -0.4586,-0.0353 -0.7056,-0.0705 -1.7991,-0.52917 -2.928,-0.91723 -3.3866,-1.23473 v 2.39889 c 1.3758,0.42334 2.4341,0.67028 3.2455,0.70556 1.3759,0.10583 2.54,-0.0706 3.5278,-0.52917 z"
         id="path1052" /><path
         d="m 1362.7296,765.22931 c 1.658,-0.74083 2.4694,-1.94028 2.4694,-3.59833 0,-1.16417 -0.4586,-2.18723 -1.4111,-2.99862 -0.7408,-0.67027 -1.7286,-1.16416 -2.8928,-1.48166 -2.0108,-0.52917 -2.9986,-1.19945 -2.9633,-2.01084 0.035,-0.52917 0.2822,-0.9525 0.7761,-1.30528 0.4586,-0.28222 0.9172,-0.42333 1.4464,-0.42333 1.2347,0.0353 2.3989,0.35278 3.4925,1.02306 v -2.36362 c -0.1764,-0.0353 -0.7409,-0.14111 -1.6228,-0.35278 -0.7056,-0.17638 -1.2347,-0.24694 -1.5522,-0.24694 -1.3053,0 -2.3989,0.35278 -3.2103,1.02306 -0.8819,0.74083 -1.3406,1.65805 -1.3406,2.82222 0,1.23472 0.4234,2.11667 1.3053,2.68111 1.6581,0.74084 2.9634,1.27 3.9159,1.55223 1.3758,0.59972 2.0108,1.34055 1.9402,2.2225 -0.1411,1.41111 -1.4816,2.18722 -3.0339,2.18722 -0.2469,0 -0.4586,-0.0353 -0.7055,-0.0705 -1.7992,-0.52917 -2.9281,-0.91723 -3.3867,-1.23473 v 2.39889 c 1.3759,0.42334 2.4342,0.67028 3.2456,0.70556 1.3758,0.10583 2.54,-0.0706 3.5278,-0.52917 z"
         id="path1054" /><path
         d="m 1382.0971,758.63236 c 0,-2.11666 -0.635,-3.81 -1.9403,-5.11528 -1.3053,-1.30528 -2.9986,-1.94028 -5.1506,-1.94028 -2.1166,0 -3.8453,0.67028 -5.1858,2.01084 -1.3053,1.30528 -1.9756,2.96333 -2.0108,4.97417 -0.035,2.04611 0.5997,3.73945 1.905,5.08 1.3758,1.41111 3.1397,2.11667 5.2916,2.11667 2.0109,0 3.6689,-0.67028 5.0447,-1.97556 1.3759,-1.30528 2.0462,-3.03389 2.0462,-5.15056 z m -2.152,0 c -0.035,3.13973 -2.0814,5.18584 -4.8683,5.18584 -1.4464,0 -2.6459,-0.49389 -3.6689,-1.51694 -0.9878,-1.02306 -1.4817,-2.25778 -1.4817,-3.6689 0,-1.48166 0.4939,-2.71639 1.4464,-3.70417 0.9878,-0.98777 2.2225,-1.48166 3.7042,-1.48166 2.928,0 4.9036,2.2225 4.8683,5.18583 z"
         id="path1056" /><path
         d="m 1395.044,763.07737 c -1.0936,0.49389 -2.0814,0.74083 -2.9633,0.74083 -1.4464,-0.0353 -2.6459,-0.52917 -3.6336,-1.51694 -0.9525,-1.02306 -1.4464,-2.22251 -1.4464,-3.63362 0.035,-2.46944 0.9878,-4.09222 2.8928,-4.83306 0.635,-0.24694 1.3758,-0.38805 2.2225,-0.38805 0.8114,0 1.6933,0.14111 2.6458,0.38805 l 0.3175,-1.86972 c -1.3758,-0.38806 -2.7164,-0.49389 -4.0217,-0.35278 -1.8697,0.21167 -3.3514,0.9525 -4.5155,2.25778 -1.1289,1.30528 -1.6934,2.8575 -1.7286,4.69195 -0.035,2.08139 0.5997,3.81 1.8697,5.18584 1.3758,1.44638 3.1397,2.11666 5.3269,2.01083 0.8467,-0.0353 1.5875,-0.14111 2.2225,-0.3175 0.3528,-0.10583 0.8114,-0.3175 1.4111,-0.56445 z"
         id="path1058" /><path
         d="m 1401.0413,765.51154 c -0.1059,-2.32834 -0.1412,-4.6214 -0.1412,-6.91445 0,-2.29306 0.035,-4.51556 0.1412,-6.77334 h -2.3284 c 0.1059,2.15194 0.1411,4.33917 0.1411,6.63222 0,2.29306 -0.035,4.65667 -0.1411,7.05557 z m 0.635,-17.99168 c 0,-0.88195 -0.8467,-1.69334 -1.7287,-1.69334 -0.8466,0 -1.658,0.81139 -1.658,1.69334 0,0.88194 0.8114,1.65805 1.658,1.65805 0.882,0 1.7287,-0.81139 1.7287,-1.65805 z"
         id="path1060" /><path
         d="m 1412.7887,757.08014 c -1.7286,0.28222 -3.0339,0.49389 -3.9864,0.59972 -1.2347,0.17639 -2.2577,0.635 -2.9986,1.34056 -0.8114,0.77611 -1.1994,1.76389 -1.1994,2.92806 0,2.11667 1.6228,3.88056 3.8805,3.88056 1.8345,-0.0353 3.3162,-0.59973 4.4098,-1.76389 0.2822,1.16416 1.023,1.72861 2.2578,1.72861 0.5997,0 1.27,-0.42334 2.0461,-1.23473 v -1.905 c -0.9525,0.70556 -1.4817,1.05834 -1.6581,1.05834 -0.388,0 -0.5997,-0.28223 -0.5997,-0.81139 v -7.26723 c 0,-1.51694 -0.4939,-2.61056 -1.4464,-3.35139 -0.8114,-0.635 -1.905,-0.9525 -3.2456,-0.91722 -2.0814,0.0353 -3.7394,0.77611 -4.9741,2.2225 v 2.11667 c 0.9877,-1.30528 3.175,-2.50473 4.9036,-2.61056 1.7286,-0.10583 2.5753,0.635 2.6105,2.2225 z m 0.1059,5.22112 c -0.4234,0.38805 -1.0584,0.74083 -1.9403,1.12888 -0.882,0.35278 -1.5522,0.52917 -2.0814,0.52917 -1.3053,0 -2.2225,-0.98778 -2.2225,-2.29306 0,-1.09361 1.1289,-2.01083 2.6811,-2.25777 1.6581,-0.24695 2.8575,-0.38806 3.5631,-0.49389 z"
         id="path1062" /><path
         d="m 1426.7234,751.75319 c -0.035,0.0353 -1.1994,0.0353 -3.4572,0.0353 v -4.58611 l -2.1166,0.91722 v 3.66889 h -2.0462 v 0.74083 c 0,0.49389 0,0.74084 -0.035,0.77612 h 2.0461 c -0.035,3.28083 -0.071,5.29167 -0.1059,6.0325 -0.071,2.08139 -0.1058,3.21028 -0.1058,3.38667 0,2.01083 0.2822,3.03389 0.8114,3.06917 0.9525,0.0353 2.1167,-0.42334 3.4925,-1.34056 -0.3175,-0.84667 -0.4939,-1.34056 -0.5997,-1.48167 -0.1411,0.0353 -0.8467,0.635 -1.1289,0.635 -0.2822,0 -0.4233,-0.635 -0.4233,-1.94028 0,0.81139 0.035,0.0353 0.071,-2.39889 l 0.1411,-5.99722 h 3.4572 z"
         id="path1064" /><path
         d="m 1431.6271,765.51154 c -0.1059,-2.32834 -0.1411,-4.6214 -0.1411,-6.91445 0,-2.29306 0.035,-4.51556 0.1411,-6.77334 h -2.3284 c 0.1059,2.15194 0.1411,4.33917 0.1411,6.63222 0,2.29306 -0.035,4.65667 -0.1411,7.05557 z m 0.635,-17.99168 c 0,-0.88195 -0.8467,-1.69334 -1.7286,-1.69334 -0.8467,0 -1.6581,0.81139 -1.6581,1.69334 0,0.88194 0.8114,1.65805 1.6581,1.65805 0.8819,0 1.7286,-0.81139 1.7286,-1.65805 z"
         id="path1066" /><path
         d="m 1449.4423,758.63236 c 0,-2.11666 -0.635,-3.81 -1.9402,-5.11528 -1.3053,-1.30528 -2.9987,-1.94028 -5.1506,-1.94028 -2.1167,0 -3.8453,0.67028 -5.1858,2.01084 -1.3053,1.30528 -1.9756,2.96333 -2.0109,4.97417 -0.035,2.04611 0.5997,3.73945 1.905,5.08 1.3759,1.41111 3.1398,2.11667 5.2917,2.11667 2.0108,0 3.6689,-0.67028 5.0447,-1.97556 1.3759,-1.30528 2.0461,-3.03389 2.0461,-5.15056 z m -2.1519,0 c -0.035,3.13973 -2.0814,5.18584 -4.8683,5.18584 -1.4464,0 -2.6459,-0.49389 -3.6689,-1.51694 -0.9878,-1.02306 -1.4817,-2.25778 -1.4817,-3.6689 0,-1.48166 0.4939,-2.71639 1.4464,-3.70417 0.9878,-0.98777 2.2225,-1.48166 3.7042,-1.48166 2.928,0 4.9036,2.2225 4.8683,5.18583 z"
         id="path1068" /><path
         d="m 1464.9646,765.47626 c 0,0.24694 0,-0.45861 -0.035,-2.04612 -0.035,-1.62277 -0.035,-3.13972 -0.035,-4.55083 0,-2.75167 -0.388,-4.69195 -1.1994,-5.82084 -0.7409,-1.02306 -1.905,-1.51694 -3.5278,-1.51694 -1.7286,0 -3.3161,0.635 -4.7272,1.86972 l 0.035,-1.65806 -2.1519,0.0353 c 0.035,0.81139 0.035,1.37583 0.035,1.65806 0,5.57389 -0.035,9.59556 -0.1059,12.02973 h 2.2931 v -10.16001 l 1.1642,-1.05833 c 0.8819,-0.635 1.9402,-0.9525 3.1397,-0.91723 1.1642,0.0353 1.9403,0.67028 2.3636,1.905 0.247,0.74084 0.3528,1.94028 0.3881,3.59834 0.035,0.81139 0.035,1.69334 0,2.64584 -0.035,1.30527 -0.035,2.64583 -0.035,3.98639 z"
         id="path1070" /><path
         d="m 1492.5518,745.05041 c -0.3527,-0.0706 -0.9525,-0.28222 -1.7639,-0.67028 -0.6702,-0.3175 -1.3405,-0.45861 -1.9755,-0.45861 -1.8345,-0.0353 -3.0692,0.635 -3.6689,1.97556 -0.3528,0.74083 -0.5292,2.64583 -0.4939,5.64445 -1.1642,0.0353 -1.9403,-0.0353 -2.293,-0.17639 v 2.04611 c 0.3175,-0.10583 1.0936,-0.17639 2.3283,-0.21167 v 1.34056 c 0,6.10306 -0.071,9.77195 -0.2117,10.9714 h 2.3636 c -0.035,-1.05834 -0.071,-4.72723 -0.071,-11.04196 v -1.27 c 2.5047,0.0353 3.9158,0.14111 4.2333,0.3175 v -2.39889 c -0.2469,0.17639 -1.658,0.28222 -4.2333,0.38806 0,-2.2225 0.035,-3.59834 0.1411,-4.09223 0.2117,-1.05833 0.7408,-1.62278 1.6228,-1.69333 1.1641,-0.10583 2.5047,0.56444 4.0216,2.08139 z"
         id="path1072" /><path
         d="m 1505.6752,758.63236 c 0,-2.11666 -0.635,-3.81 -1.9403,-5.11528 -1.3053,-1.30528 -2.9986,-1.94028 -5.1506,-1.94028 -2.1166,0 -3.8452,0.67028 -5.1858,2.01084 -1.3053,1.30528 -1.9755,2.96333 -2.0108,4.97417 -0.035,2.04611 0.5997,3.73945 1.905,5.08 1.3758,1.41111 3.1397,2.11667 5.2916,2.11667 2.0109,0 3.6689,-0.67028 5.0448,-1.97556 1.3758,-1.30528 2.0461,-3.03389 2.0461,-5.15056 z m -2.152,0 c -0.035,3.13973 -2.0814,5.18584 -4.8683,5.18584 -1.4464,0 -2.6458,-0.49389 -3.6689,-1.51694 -0.9878,-1.02306 -1.4817,-2.25778 -1.4817,-3.6689 0,-1.48166 0.4939,-2.71639 1.4464,-3.70417 0.9878,-0.98777 2.2225,-1.48166 3.7042,-1.48166 2.9281,0 4.9036,2.2225 4.8683,5.18583 z"
         id="path1074" /><path
         d="m 1515.6941,751.75319 c -0.3881,-0.17639 -0.8114,-0.24694 -1.27,-0.24694 -1.8697,0.0353 -3.0339,0.91722 -3.5631,2.71639 l 0.035,-2.43417 h -2.2225 c 0.035,0.84667 0.071,1.41111 0.1058,1.72861 0.071,5.71501 0.071,9.7014 0,11.99446 l 2.2578,-0.0353 c 0,0.10583 -0.035,-0.81139 -0.071,-2.71639 -0.035,-1.905 -0.035,-3.42195 -0.035,-4.58612 -0.035,-0.98778 0.1764,-1.94028 0.635,-2.8575 0.6703,-1.23472 1.6933,-1.86972 3.0692,-1.86972 0.2822,0 0.635,0.14111 1.0583,0.45861 z"
         id="path1076" /><path
         d="m 1545.6097,761.73681 c -0.1411,0.59972 -0.3175,0.98778 -0.5644,1.23472 -0.5292,0.52917 -1.4817,0.77612 -2.8928,0.77612 -2.2931,0 -4.1981,-0.95251 -5.715,-2.85751 -1.3759,-1.76389 -2.0814,-3.84528 -2.0814,-6.24417 0,-2.57528 0.635,-4.72722 1.8697,-6.49111 1.3758,-1.905 3.2103,-2.89278 5.5739,-2.96334 1.5522,-0.0353 2.6106,0.21167 3.2103,0.74084 0.2469,0.49388 0.388,0.91722 0.4233,1.23472 h 1.6581 c -0.1764,-1.62278 -0.2823,-2.75167 -0.2823,-3.35139 -0.1763,0.0353 -0.7761,-0.0706 -1.8344,-0.3175 -1.0231,-0.24695 -2.0461,-0.38806 -3.0692,-0.38806 -3.1397,0 -5.6091,1.16417 -7.4436,3.45723 -1.6933,2.11666 -2.54,4.79778 -2.54,8.04333 0,2.96334 0.882,5.53862 2.6811,7.72584 1.8698,2.32834 4.2686,3.49251 7.1967,3.49251 1.0936,0 2.2225,-0.14112 3.3867,-0.45862 1.023,-0.24694 1.658,-0.38805 1.8344,-0.35277 0,-0.59973 0.071,-1.69334 0.247,-3.28084 z"
         id="path1078" /><path
         d="m 1564.2717,758.63236 c 0,-2.11666 -0.635,-3.81 -1.9403,-5.11528 -1.3053,-1.30528 -2.9986,-1.94028 -5.1506,-1.94028 -2.1166,0 -3.8452,0.67028 -5.1858,2.01084 -1.3053,1.30528 -1.9756,2.96333 -2.0108,4.97417 -0.035,2.04611 0.5997,3.73945 1.905,5.08 1.3758,1.41111 3.1397,2.11667 5.2916,2.11667 2.0109,0 3.6689,-0.67028 5.0448,-1.97556 1.3758,-1.30528 2.0461,-3.03389 2.0461,-5.15056 z m -2.152,0 c -0.035,3.13973 -2.0814,5.18584 -4.8683,5.18584 -1.4464,0 -2.6458,-0.49389 -3.6689,-1.51694 -0.9878,-1.02306 -1.4817,-2.25778 -1.4817,-3.6689 0,-1.48166 0.4939,-2.71639 1.4464,-3.70417 0.9878,-0.98777 2.2225,-1.48166 3.7042,-1.48166 2.9281,0 4.9036,2.2225 4.8683,5.18583 z"
         id="path1080" /><path
         d="m 1588.437,764.84126 c -0.035,-0.56445 -0.035,-1.27 -0.035,-2.11667 -0.035,-0.98778 -0.035,-2.36361 -0.035,-4.16278 0,-2.75167 -0.388,-4.69195 -1.1994,-5.82084 -0.7056,-1.02306 -1.8697,-1.51694 -3.5278,-1.51694 -2.0108,0 -3.7042,0.70555 -5.1153,2.11666 -0.6703,-1.41111 -1.9755,-2.11666 -3.8805,-2.11666 -1.7287,0 -3.2103,0.635 -4.3745,1.86972 l 0.035,-1.30528 h -2.152 c 0.035,0.84667 0.035,1.41111 0.071,1.69333 0,5.53862 -0.035,9.56029 -0.1411,11.99446 h 2.293 v -10.47751 c 0.3175,-0.35278 0.6703,-0.70556 0.9878,-1.05833 0.7761,-0.635 1.7639,-0.9525 2.9634,-0.91723 1.1641,0.0353 1.9402,0.67028 2.3636,1.905 0.2469,0.74084 0.3528,1.94028 0.388,3.59834 0.035,0.81139 0.035,1.76389 0,2.82222 -0.035,1.44639 -0.035,2.82223 -0.035,4.12751 h 2.3988 c 0,0.14111 -0.035,-1.05834 -0.071,-2.75167 v -4.16278 c 0,-1.44639 -0.1058,-2.64584 -0.3175,-3.59834 0.8114,-0.70555 1.1994,-1.05833 1.2347,-1.09361 0.882,-0.59972 1.8697,-0.88194 3.0339,-0.84667 1.1642,0.0353 1.9756,0.67028 2.3636,1.905 0.247,0.74084 0.3528,1.94028 0.3881,3.59834 0.035,0.81139 0.035,1.76389 0,2.82222 -0.035,1.44639 -0.035,2.82223 -0.035,4.12751 h 2.3989 z"
         id="path1082" /><path
         d="m 1606.3228,758.59709 c 0,-2.11667 -0.6702,-3.84528 -2.0461,-5.15056 -1.3758,-1.30528 -3.0339,-1.97556 -5.0447,-1.97556 -1.6228,0 -3.175,0.59972 -3.81,1.51695 l 0.1411,-1.23473 h -2.2931 c 0.035,0.67028 0.035,1.51695 0.071,2.57528 0.035,2.8575 0.035,5.78556 0.071,8.71362 v 2.50472 c 0.035,3.88056 -0.035,6.45584 -0.2117,7.76112 h 2.3989 c -0.1059,-1.5875 -0.1764,-4.16278 -0.1764,-7.72584 v -1.37583 c 0.8467,1.05833 2.1167,1.5875 3.81,1.5875 2.1519,0 3.8453,-0.67028 5.1506,-1.97556 1.3052,-1.34056 1.9402,-3.06917 1.9402,-5.22111 z m -7.0203,-5.18584 c 2.787,0 4.8331,2.04611 4.8684,5.18584 0.035,1.48166 -0.4233,2.75166 -1.3406,3.77472 -0.9172,1.02306 -2.0814,1.55222 -3.5278,1.55222 -1.5875,0 -2.8927,-0.56444 -3.8805,-1.69333 -0.035,-1.5875 0,-3.95111 0.071,-7.12612 1.0231,-1.12889 2.2931,-1.69333 3.81,-1.69333 z"
         id="path1084" /><path
         d="m 1623.7149,764.4532 c -0.3175,-0.84667 -0.4939,-1.34056 -0.5998,-1.48167 -0.1411,0.0353 -0.9525,0.59973 -1.1994,0.59973 -0.035,0 -0.071,-0.0353 -0.1058,-0.0706 0,-5.36223 0.035,-9.27806 0.1411,-11.71223 h -2.2931 c 0,0.0706 -0.035,1.48167 -0.071,4.19806 -0.035,2.96333 -0.07,4.97417 -0.1058,6.0325 l -1.1642,1.05834 c -0.8819,0.635 -1.9402,0.9525 -3.1397,0.91722 -1.1641,-0.0353 -1.9403,-0.67028 -2.3636,-1.905 -0.2469,-0.74084 -0.3528,-1.94028 -0.388,-3.59834 -0.035,-0.84666 0,-1.72861 0.035,-2.68111 0.1059,-1.48167 0.1411,-2.82222 0.1764,-4.02167 h -2.3989 c 0,-0.0706 0,0.10583 -0.035,0.56445 -0.035,0.52916 -0.035,1.19944 -0.035,2.01083 -0.035,1.23472 -0.035,2.61056 -0.035,4.09222 0,2.75167 0.3881,4.69195 1.1994,5.82084 0.7056,1.02306 1.8698,1.51695 3.5278,1.51695 1.7286,0 3.3161,-0.635 4.7272,-1.86973 0.035,1.16417 0.2117,1.79917 0.5998,1.86973 0.5997,0.14111 1.7991,-0.3175 3.5278,-1.34056 z"
         id="path1086" /><path
         d="m 1633.0988,751.75319 c -0.035,0.0353 -1.1995,0.0353 -3.4573,0.0353 v -4.58611 l -2.1166,0.91722 v 3.66889 h -2.0462 v 0.74083 c 0,0.49389 0,0.74084 -0.035,0.77612 h 2.0461 c -0.035,3.28083 -0.071,5.29167 -0.1059,6.0325 -0.071,2.08139 -0.1058,3.21028 -0.1058,3.38667 0,2.01083 0.2822,3.03389 0.8114,3.06917 0.9525,0.0353 2.1167,-0.42334 3.4925,-1.34056 -0.3175,-0.84667 -0.4939,-1.34056 -0.5997,-1.48167 -0.1411,0.0353 -0.8467,0.635 -1.1289,0.635 -0.2822,0 -0.4233,-0.635 -0.4233,-1.94028 0,0.81139 0.035,0.0353 0.07,-2.39889 l 0.1411,-5.99722 h 3.4573 z"
         id="path1088" /><path
         d="m 1641.6712,751.5768 c -2.1519,0 -3.5631,0.635 -4.8683,2.04612 -1.2348,1.34055 -1.8698,2.99861 -1.905,4.97417 -0.035,2.08139 0.5997,3.77472 1.8697,5.15056 1.27,1.34055 2.8928,2.04611 4.8683,2.04611 1.7639,0 3.5631,-0.45861 5.4328,-1.65806 l -1.023,-1.86972 c -1.2348,1.09361 -2.6106,1.55222 -3.9864,1.55222 -1.3406,0 -2.3284,-0.38806 -3.3867,-1.37583 -1.0936,-1.02306 -1.6228,-2.25778 -1.5875,-3.77473 v -0.14111 h 10.6892 c 0.035,-2.08139 -0.4586,-3.73945 -1.4464,-4.97417 -1.0584,-1.30528 -2.5753,-1.97556 -4.6567,-1.97556 z m -4.2333,5.08001 c 0.7055,-1.94028 2.293,-3.17501 4.0216,-3.17501 2.2225,0 3.4925,1.05834 3.7395,3.17501 z"
         id="path1090" /><path
         d="m 1657.5462,751.75319 c -0.3881,-0.17639 -0.8114,-0.24694 -1.27,-0.24694 -1.8697,0.0353 -3.0339,0.91722 -3.5631,2.71639 l 0.035,-2.43417 h -2.2225 c 0.035,0.84667 0.071,1.41111 0.1058,1.72861 0.071,5.71501 0.071,9.7014 0,11.99446 l 2.2578,-0.0353 c 0,0.10583 -0.035,-0.81139 -0.071,-2.71639 -0.035,-1.905 -0.035,-3.42195 -0.035,-4.58612 -0.035,-0.98778 0.1764,-1.94028 0.635,-2.8575 0.6703,-1.23472 1.6933,-1.86972 3.0692,-1.86972 0.2822,0 0.635,0.14111 1.0583,0.45861 z"
         id="path1092" /><path
         d="m 1689.896,764.91181 c -0.1764,-1.30528 -0.2822,-2.92806 -0.3175,-4.79778 0.035,2.92806 0.035,1.30528 0.035,-4.79778 -1.8698,0.0353 -4.057,0 -6.6323,-0.0353 0.1059,0.81139 0.1059,1.905 0,3.28084 h 1.7286 c 0.035,-0.52917 0.247,-0.88195 0.635,-0.98778 0.1764,-0.0706 0.635,-0.10583 1.4112,-0.10583 h 0.5291 l 0.035,4.26861 c 0.035,0.88195 -0.3528,1.44639 -1.0936,1.72861 -0.4586,0.17639 -1.1995,0.28223 -2.2225,0.28223 -2.2931,0 -4.1628,-0.95251 -5.6797,-2.82223 -1.3759,-1.76389 -2.0814,-3.81 -2.0814,-6.17361 0,-2.50473 0.635,-4.69195 1.9403,-6.56168 1.4463,-2.04611 3.3866,-3.06916 5.8208,-3.06916 0.9525,0 1.658,0.10583 2.1167,0.3175 0.5997,0.3175 1.023,0.88194 1.1994,1.72861 h 1.6581 c -0.1764,-1.16417 -0.2823,-2.29306 -0.3175,-3.31612 -0.1412,0.0353 -0.3881,0 -0.7409,-0.10583 -0.5291,-0.17639 -0.8819,-0.28222 -1.1289,-0.3175 -0.9525,-0.21167 -1.9402,-0.3175 -2.9986,-0.3175 -3.1397,0 -5.6091,1.16417 -7.4436,3.4925 -1.7286,2.15195 -2.5753,4.79778 -2.5753,8.00806 0,3.06917 0.882,5.64445 2.6106,7.76112 1.8344,2.29306 4.2686,3.42195 7.2672,3.42195 1.2347,0 2.1872,-0.10584 2.9281,-0.3175 1.4464,-0.42334 2.5752,-0.59973 3.3161,-0.56445 z"
         id="path1094" /><path
         d="m 1700.6204,751.75319 c -0.388,-0.17639 -0.8114,-0.24694 -1.27,-0.24694 -1.8697,0.0353 -3.0339,0.91722 -3.563,2.71639 l 0.035,-2.43417 h -2.2225 c 0.035,0.84667 0.071,1.41111 0.1059,1.72861 0.071,5.71501 0.071,9.7014 0,11.99446 l 2.2577,-0.0353 c 0,0.10583 -0.035,-0.81139 -0.071,-2.71639 -0.035,-1.905 -0.035,-3.42195 -0.035,-4.58612 -0.035,-0.98778 0.1764,-1.94028 0.635,-2.8575 0.6703,-1.23472 1.6933,-1.86972 3.0692,-1.86972 0.2822,0 0.635,0.14111 1.0583,0.45861 z"
         id="path1096" /><path
         d="m 1710.5688,757.08014 c -1.7286,0.28222 -3.0339,0.49389 -3.9864,0.59972 -1.2347,0.17639 -2.2578,0.635 -2.9986,1.34056 -0.8114,0.77611 -1.1995,1.76389 -1.1995,2.92806 0,2.11667 1.6228,3.88056 3.8806,3.88056 1.8344,-0.0353 3.3161,-0.59973 4.4097,-1.76389 0.2822,1.16416 1.0231,1.72861 2.2578,1.72861 0.5997,0 1.27,-0.42334 2.0461,-1.23473 v -1.905 c -0.9525,0.70556 -1.4817,1.05834 -1.6581,1.05834 -0.388,0 -0.5997,-0.28223 -0.5997,-0.81139 v -7.26723 c 0,-1.51694 -0.4939,-2.61056 -1.4464,-3.35139 -0.8114,-0.635 -1.905,-0.9525 -3.2455,-0.91722 -2.0814,0.0353 -3.7395,0.77611 -4.9742,2.2225 v 2.11667 c 0.9878,-1.30528 3.175,-2.50473 4.9036,-2.61056 1.7286,-0.10583 2.5753,0.635 2.6106,2.2225 z m 0.1058,5.22112 c -0.4233,0.38805 -1.0583,0.74083 -1.9403,1.12888 -0.8819,0.35278 -1.5522,0.52917 -2.0814,0.52917 -1.3052,0 -2.2225,-0.98778 -2.2225,-2.29306 0,-1.09361 1.1289,-2.01083 2.6811,-2.25777 1.6581,-0.24695 2.8575,-0.38806 3.5631,-0.49389 z"
         id="path1098" /><path
         d="m 1731.3826,758.59709 c 0,-2.11667 -0.6702,-3.84528 -2.0461,-5.15056 -1.3758,-1.30528 -3.0339,-1.97556 -5.0447,-1.97556 -1.6228,0 -3.175,0.59972 -3.81,1.51695 l 0.1411,-1.23473 h -2.293 c 0.035,0.67028 0.035,1.51695 0.071,2.57528 0.035,2.8575 0.035,5.78556 0.071,8.71362 v 2.50472 c 0.035,3.88056 -0.035,6.45584 -0.2117,7.76112 h 2.3989 c -0.1058,-1.5875 -0.1764,-4.16278 -0.1764,-7.72584 v -1.37583 c 0.8467,1.05833 2.1167,1.5875 3.81,1.5875 2.152,0 3.8453,-0.67028 5.1506,-1.97556 1.3052,-1.34056 1.9402,-3.06917 1.9402,-5.22111 z m -7.0202,-5.18584 c 2.7869,0 4.833,2.04611 4.8683,5.18584 0.035,1.48166 -0.4233,2.75166 -1.3406,3.77472 -0.9172,1.02306 -2.0813,1.55222 -3.5277,1.55222 -1.5875,0 -2.8928,-0.56444 -3.8806,-1.69333 -0.035,-1.5875 0,-3.95111 0.071,-7.12612 1.023,-1.12889 2.293,-1.69333 3.81,-1.69333 z"
         id="path1100" /><path
         d="m 1746.9754,765.47626 c 0,0.14111 -0.035,-1.05834 -0.071,-2.75167 v -4.16278 c 0,-2.75167 -0.3881,-4.69195 -1.1995,-5.82084 -0.7408,-1.02306 -1.905,-1.51694 -3.5277,-1.51694 -1.7287,0 -3.3162,0.635 -4.7625,1.94027 v -1.37583 c 0,-3.42195 0.071,-5.89139 0.1763,-7.47889 h -2.3988 c 0.1411,1.16416 0.2116,3.66889 0.2116,7.51417 v 1.65805 c 0,5.53862 -0.035,9.56029 -0.1411,11.99446 h 2.2931 c 0,0.0353 -0.035,-0.67028 -0.071,-2.15195 -0.035,-1.5875 -0.035,-2.99861 -0.071,-4.23333 0,-1.76389 0,-3.10445 0.035,-4.02167 0.3881,-0.35278 0.8114,-0.70556 1.1995,-1.09362 0.9525,-0.67027 2.0108,-0.98777 3.2103,-0.9525 1.1641,0.0353 1.9402,0.67028 2.3636,1.905 0.2469,0.74084 0.3527,1.94028 0.388,3.59834 v 2.82222 c -0.035,1.44639 -0.035,2.82223 -0.035,4.12751 z"
         id="path1102" /><path
         d="m 1753.9252,765.51154 c -0.1058,-2.32834 -0.1411,-4.6214 -0.1411,-6.91445 0,-2.29306 0.035,-4.51556 0.1411,-6.77334 h -2.3283 c 0.1058,2.15194 0.1411,4.33917 0.1411,6.63222 0,2.29306 -0.035,4.65667 -0.1411,7.05557 z m 0.635,-17.99168 c 0,-0.88195 -0.8466,-1.69334 -1.7286,-1.69334 -0.8467,0 -1.658,0.81139 -1.658,1.69334 0,0.88194 0.8113,1.65805 1.658,1.65805 0.882,0 1.7286,-0.81139 1.7286,-1.65805 z"
         id="path1104" /><path
         d="m 1767.6835,763.07737 c -1.0936,0.49389 -2.0813,0.74083 -2.9633,0.74083 -1.4464,-0.0353 -2.6458,-0.52917 -3.6336,-1.51694 -0.9525,-1.02306 -1.4464,-2.22251 -1.4464,-3.63362 0.035,-2.46944 0.9878,-4.09222 2.8928,-4.83306 0.635,-0.24694 1.3758,-0.38805 2.2225,-0.38805 0.8114,0 1.6933,0.14111 2.6458,0.38805 l 0.3175,-1.86972 c -1.3758,-0.38806 -2.7164,-0.49389 -4.0216,-0.35278 -1.8698,0.21167 -3.3514,0.9525 -4.5156,2.25778 -1.1289,1.30528 -1.6933,2.8575 -1.7286,4.69195 -0.035,2.08139 0.5997,3.81 1.8697,5.18584 1.3758,1.44638 3.1397,2.11666 5.327,2.01083 0.8466,-0.0353 1.5875,-0.14111 2.2225,-0.3175 0.3527,-0.10583 0.8113,-0.3175 1.4111,-0.56445 z"
         id="path1106" /><path
         d="m 1777.2438,765.22931 c 1.6581,-0.74083 2.4695,-1.94028 2.4695,-3.59833 0,-1.16417 -0.4586,-2.18723 -1.4111,-2.99862 -0.7409,-0.67027 -1.7286,-1.16416 -2.8928,-1.48166 -2.0108,-0.52917 -2.9986,-1.19945 -2.9633,-2.01084 0.035,-0.52917 0.2822,-0.9525 0.7761,-1.30528 0.4586,-0.28222 0.9172,-0.42333 1.4464,-0.42333 1.2347,0.0353 2.3989,0.35278 3.4925,1.02306 v -2.36362 c -0.1764,-0.0353 -0.7409,-0.14111 -1.6228,-0.35278 -0.7056,-0.17638 -1.2347,-0.24694 -1.5522,-0.24694 -1.3053,0 -2.3989,0.35278 -3.2103,1.02306 -0.882,0.74083 -1.3406,1.65805 -1.3406,2.82222 0,1.23472 0.4234,2.11667 1.3053,2.68111 1.6581,0.74084 2.9633,1.27 3.9158,1.55223 1.3759,0.59972 2.0109,1.34055 1.9403,2.2225 -0.1411,1.41111 -1.4817,2.18722 -3.0339,2.18722 -0.2469,0 -0.4586,-0.0353 -0.7055,-0.0705 -1.7992,-0.52917 -2.9281,-0.91723 -3.3867,-1.23473 v 2.39889 c 1.3758,0.42334 2.4342,0.67028 3.2456,0.70556 1.3758,0.10583 2.54,-0.0706 3.5277,-0.52917 z"
         id="path1108" /></g></g></svg>
